<svg width="152" height="32" viewBox="0 0 152 32" fill="none" xmlns="http://www.w3.org/2000/svg">
<path d="M94.0628 7.22758L97.6828 7.22201L96.9991 9.30887L94.0708 9.31338L94.1153 20.9848L91.4395 20.9889L91.3949 9.3175L89.5016 9.32041L89.4936 7.23461L91.387 7.23169C91.3838 6.39479 91.3806 5.57489 91.3774 4.73717C91.3711 3.07306 92.0549 1.87815 93.0879 1.15944C94.4784 0.17955 96.7453 0.232705 98.1837 0.914429L97.6358 2.99058C96.0344 2.39894 94.0443 2.3931 94.054 4.93378C94.057 5.69784 94.0599 6.46351 94.0628 7.22758ZM118.43 6.89789C122.309 6.89192 124.303 9.76948 124.335 13.678C124.339 14.1685 124.333 14.1054 124.334 14.5934C121.323 14.5981 118.264 14.6028 115.253 14.6074C115.406 15.937 115.698 17.022 116.569 17.8357C118.044 19.2167 120.288 19.5208 123.245 18.0901L124.046 19.8792C121.844 21.312 117.688 21.7612 115.246 19.9365C113.634 18.8204 112.59 16.6423 112.58 14.0134C112.564 9.58036 115.094 6.90303 118.43 6.89789ZM118.466 8.9286C120.503 8.92546 121.602 10.8356 121.609 12.6688L115.265 12.694C115.256 10.5718 116.669 8.93136 118.466 8.9286ZM105 7.24313L107.249 7.23967L107.529 8.93654C109.341 6.89731 111.517 6.44878 113.172 7.29772L112.274 9.58483C110.619 8.70676 109.17 9.51596 107.66 11.014L107.698 20.9639L105.053 20.968L105 7.24313ZM99.9762 7.25086L102.628 7.24678L102.68 20.9716L100.029 20.9757L99.9762 7.25086ZM101.28 1.13549C102.235 1.13402 103.012 1.88315 103.015 2.80828C103.019 3.73261 102.247 4.4841 101.292 4.48557C100.337 4.48704 99.5603 3.73793 99.5568 2.81361C99.5533 1.88847 100.325 1.13696 101.28 1.13549Z" fill="#F8F8F8"/>
<path fill-rule="evenodd" clip-rule="evenodd" d="M52.829 26.0758C47.9948 29.558 40.9735 31.4166 34.921 31.426C26.4394 31.439 18.7894 28.4058 12.99 23.3447C12.5352 22.948 12.9373 22.4035 13.4843 22.711C19.7336 26.2255 27.4542 28.3366 35.4192 28.3244C40.7917 28.3161 46.6934 27.2241 52.1198 24.9761C52.9377 24.6373 53.6285 25.4991 52.829 26.0758Z" fill="#F8F8F8"/>
<path fill-rule="evenodd" clip-rule="evenodd" d="M54.8387 23.8357C54.2149 23.0653 50.739 23.4762 49.1763 23.6607C48.7032 23.7165 48.6283 23.3151 49.0539 23.0231C51.8217 21.1265 56.3704 21.6658 56.9012 22.2987C57.4361 22.9365 56.7805 27.3666 54.1886 29.4831C53.7898 29.8083 53.4083 29.6356 53.5842 29.2064C54.1638 27.7858 55.4625 24.6061 54.8387 23.8357Z" fill="#F8F8F8"/>
<path fill-rule="evenodd" clip-rule="evenodd" d="M49.2326 9.64981L49.2256 7.81006C49.2262 7.53 49.4421 7.34351 49.7038 7.34391L58.1921 7.33004C58.4638 7.32962 58.6829 7.52111 58.6839 7.79307L58.6899 9.37058C58.6876 9.63526 58.4598 9.98123 58.0552 10.5298L53.681 16.6338C55.3125 16.594 57.0409 16.8293 58.5265 17.6364C58.8613 17.8189 58.9524 18.0882 58.9801 18.3537L58.9875 20.3165C58.9886 20.5868 58.6848 20.9005 58.3633 20.7375C55.7457 19.4125 52.2785 19.273 49.395 20.7683C49.1006 20.9209 48.7903 20.613 48.7892 20.3427L48.7821 18.477C48.781 18.1776 48.7849 17.6676 49.0931 17.2123L54.1602 10.1052L49.7252 10.112C49.4543 10.1124 49.2353 9.925 49.2326 9.64981Z" fill="#F8F8F8"/>
<path fill-rule="evenodd" clip-rule="evenodd" d="M18.3136 21.1857L15.7311 21.1897C15.4852 21.1747 15.2878 20.9961 15.2669 20.7663L15.2203 7.8937C15.2193 7.6355 15.441 7.43038 15.7169 7.42996L18.1219 7.42464C18.3736 7.4372 18.5759 7.62144 18.5927 7.85695L18.5991 9.53725L18.6474 9.53718C19.2679 7.91095 20.4467 7.15073 22.0366 7.14828C23.6516 7.1458 24.667 7.90264 25.3966 9.52679C26.0179 7.90056 27.4366 7.13997 28.9558 7.13763C30.04 7.13597 31.2233 7.56716 31.9495 8.54137C32.7736 9.62389 32.6113 11.1952 32.6166 12.5768L32.6451 20.7007C32.6461 20.9573 32.4244 21.164 32.1485 21.1645L29.5694 21.1684C29.3101 21.1526 29.1052 20.9538 29.1043 20.707L29.0782 13.8822C29.0761 13.3415 29.1185 11.9865 28.9957 11.4719C28.7999 10.6053 28.2206 10.3618 27.4739 10.3629C26.8465 10.3639 26.1972 10.7712 25.9338 11.4224C25.6721 12.0727 25.6996 13.1557 25.7024 13.8873L25.7284 20.7114C25.7294 20.9679 25.5077 21.1747 25.2327 21.1751L22.6535 21.1791C22.3935 21.1633 22.1886 20.9645 22.1876 20.7176L22.1591 13.8928C22.1536 12.4577 22.3864 10.3449 20.5555 10.3477C18.698 10.3505 18.7792 12.4087 18.7849 13.898L18.8093 20.722C18.8103 20.9786 18.5886 21.1853 18.3136 21.1857Z" fill="#F8F8F8"/>
<path fill-rule="evenodd" clip-rule="evenodd" d="M66.0212 9.70912C64.117 9.71205 64.0058 12.2311 64.0118 13.8021C64.0178 15.3731 64.0073 18.7321 66.0323 18.729C68.0331 18.7259 68.1186 16.0168 68.1123 14.3656C68.1082 13.2818 68.0549 11.9812 67.7134 10.9522C67.42 10.0582 66.8404 9.70786 66.0212 9.70912ZM65.9878 7.08107C69.8203 7.07517 71.905 10.2691 71.9205 14.3322C71.9355 18.2594 69.6583 21.379 66.0424 21.3846C62.2816 21.3904 60.2202 18.1965 60.205 14.2143C60.1897 10.2054 62.2503 7.08682 65.9878 7.08107Z" fill="#F8F8F8"/>
<path fill-rule="evenodd" clip-rule="evenodd" d="M76.9178 21.0959L74.3445 21.0999C74.0861 21.0841 73.8811 20.8853 73.8802 20.6384L73.826 7.76097C73.8468 7.5246 74.0611 7.34052 74.3211 7.34012L76.7161 7.33481C76.942 7.34661 77.1284 7.49527 77.1766 7.69511L77.1841 9.66436L77.2325 9.66428C77.9491 7.90193 78.9584 7.06104 80.7417 7.05829C81.8992 7.05651 83.0341 7.46108 83.7608 8.57046C84.4398 9.59897 84.4464 11.3327 84.4512 12.5783L84.4821 20.6796C84.4546 20.907 84.2445 21.0846 83.9886 21.085L81.4003 21.089C81.1611 21.0748 80.9671 20.9043 80.9387 20.685L80.9121 13.6951C80.9067 12.2868 81.068 10.2274 79.2838 10.2301C78.6563 10.2311 78.0804 10.6383 77.7927 11.2612C77.4341 12.0477 77.3887 12.8328 77.3921 13.7005L77.4185 20.6322C77.4153 20.8887 77.1928 21.0955 76.9178 21.0959Z" fill="#F8F8F8"/>
<path fill-rule="evenodd" clip-rule="evenodd" d="M45.1131 21.1127C44.9428 21.2627 44.697 21.2728 44.5033 21.1719C43.644 20.4812 43.4886 20.1618 43.0169 19.5036C41.6048 20.9077 40.6022 21.3301 38.7664 21.3329C36.5922 21.3363 34.8964 20.0358 34.8864 17.4295C34.8787 15.3939 36.0092 14.0073 37.6241 13.3257C39.0235 12.727 40.9798 12.6147 42.4775 12.4497L42.4763 12.1236C42.474 11.5262 42.5196 10.8212 42.1551 10.3053C41.8384 9.84448 41.2343 9.65519 40.7026 9.65601C39.7176 9.65753 38.8437 10.1486 38.6326 11.1647C38.5884 11.3914 38.4201 11.6158 38.186 11.6275L35.6816 11.3675C35.4706 11.3217 35.235 11.1578 35.2946 10.8436C35.8592 7.89413 38.5975 6.99877 41.0542 6.99499C42.3117 6.99306 43.9554 7.3159 44.9489 8.23789C46.21 9.37639 46.0949 10.8966 46.1013 12.5534L46.1162 16.4604C46.1207 17.6364 46.6251 18.1504 47.1 18.7835C47.2651 19.0115 47.3028 19.2825 47.0934 19.4496C46.5684 19.8802 45.6339 20.6724 45.1198 21.1184L45.1131 21.1127ZM42.4872 15.0018C42.491 15.9795 42.5174 16.7929 42.0132 17.6638C41.6059 18.3694 40.9551 18.805 40.2301 18.8062C39.2401 18.8077 38.6573 18.0753 38.6531 16.9891C38.645 14.8531 40.6168 14.4615 42.4852 14.4587L42.4872 15.0018Z" fill="#F8F8F8"/>
<path fill-rule="evenodd" clip-rule="evenodd" d="M11.2605 21.1645C11.0902 21.3145 10.8436 21.3246 10.6507 21.2237C9.78975 20.533 9.6352 20.2135 9.16435 19.5554C7.75137 20.9594 6.74964 21.3819 4.91381 21.3847C2.73965 21.388 1.04385 20.0875 1.0339 17.4813C1.02613 15.4457 2.15585 14.059 3.77159 13.3775C5.17014 12.7788 7.12722 12.6665 8.62326 12.5015L8.62202 12.1753C8.61974 11.578 8.66621 10.8729 8.30174 10.3571C7.98581 9.89623 7.38091 9.70695 6.85008 9.70777C5.86508 9.70928 4.99112 10.2003 4.78 11.2164C4.7367 11.4431 4.56757 11.6676 4.33344 11.6793L1.82911 11.4193C1.6181 11.3735 1.38163 11.2095 1.44209 10.8954C2.00584 7.94589 4.7441 7.05053 7.20243 7.04675C8.45826 7.04482 10.1028 7.36766 11.0963 8.28965C12.3565 9.42815 12.2423 10.9484 12.2487 12.6052L12.2636 16.5121C12.2681 17.6882 12.7717 18.2022 13.2458 18.8352C13.4117 19.0632 13.4502 19.3343 13.2408 19.5014C12.715 19.932 11.7797 20.7242 11.2664 21.1701L11.2605 21.1645ZM8.633 15.0535C8.63674 16.0313 8.66484 16.8447 8.16066 17.7156C7.75335 18.4212 7.10168 18.8568 6.37752 18.8579C5.38752 18.8594 4.80388 18.127 4.79973 17.0408C4.79158 14.9048 6.76343 14.5133 8.63093 14.5104L8.633 15.0535Z" fill="#F8F8F8"/>
<path fill-rule="evenodd" clip-rule="evenodd" d="M145.395 20.8069L150.995 7.1972L148.217 7.20147L145.771 13.453C145.256 14.7569 144.762 16.0122 144.33 17.316C143.89 16.0289 143.389 14.7533 142.866 13.4574L140.363 7.21356L137.575 7.21785L143.299 20.8101L145.395 20.8069Z" fill="#F8F8F8"/>
<path fill-rule="evenodd" clip-rule="evenodd" d="M136.943 9.26507L133.201 9.27083L133.245 20.8257L130.665 20.8297L130.621 9.2748L126.548 9.28107L126.54 7.23494L137.607 7.21791L136.943 9.26507Z" fill="#F8F8F8"/>
</svg>
