<svg width="86" height="20" viewBox="0 0 86 20" fill="none" xmlns="http://www.w3.org/2000/svg">
<path d="M0.880383 12.3006C0.876749 11.3488 1.03271 10.4604 1.34828 9.6355C1.66384 8.81075 2.10722 8.09182 2.6786 7.47904C3.24997 6.86625 3.93445 6.385 4.73203 6.03543C5.52962 5.68569 6.40425 5.51001 7.3561 5.50855C8.07863 5.50744 8.73555 5.61277 9.32702 5.82422C9.9185 6.03584 10.4914 6.38347 11.0456 6.86693L11.0413 5.75788L14.2795 5.75289L14.3293 18.8072L11.0912 18.8122L11.0869 17.703C10.5365 18.1883 9.96623 18.5377 9.37637 18.751C8.78652 18.9644 8.13041 19.0716 7.40788 19.0727C6.45603 19.0742 5.5799 18.9014 4.77982 18.5541C3.97958 18.207 3.29143 17.7278 2.71539 17.1168C2.13934 16.5056 1.69047 15.7882 1.36862 14.9643C1.04676 14.1405 0.884017 13.2526 0.880383 12.3006ZM7.81702 16.0252C8.07202 16.0249 8.33959 15.9969 8.6199 15.9412C8.90004 15.8855 9.18234 15.7915 9.46663 15.6594C9.75076 15.5272 10.0285 15.3505 10.2996 15.129C10.5707 14.9077 10.8288 14.6353 11.074 14.3119L11.0585 10.258C10.8108 9.93553 10.5507 9.66611 10.2779 9.44972C10.005 9.2335 9.72607 9.05746 9.44075 8.92192C9.15543 8.78638 8.87258 8.69117 8.59185 8.63645C8.31129 8.58157 8.04334 8.55449 7.7885 8.55472C7.28706 8.55549 6.81775 8.64972 6.3809 8.8374C5.94372 9.02508 5.56444 9.28709 5.24289 9.62325C4.92118 9.95941 4.66983 10.3551 4.48884 10.81C4.30784 11.265 4.21837 11.7601 4.22041 12.2955C4.22245 12.831 4.31571 13.3259 4.50018 13.7803C4.68464 14.2347 4.93901 14.6296 5.26328 14.9647C5.58755 15.3001 5.96883 15.5607 6.40711 15.7471C6.84572 15.9332 7.31558 16.026 7.81702 16.0252Z" fill="#F0F1F2"/>
<path d="M22.3852 8.70786C20.851 8.72142 19.5221 9.79269 19.5282 11.3795L19.5565 18.799L16.3184 18.804L16.2904 11.4737C16.2968 8.41696 18.933 5.53168 22.3265 5.4853L22.4171 5.48516C25.8109 5.5211 28.469 8.39823 28.4988 11.4549L28.5268 18.7852L25.2887 18.7901L25.2603 11.3707C25.2543 9.78387 23.9174 8.7167 22.3829 8.70787" fill="#F0F1F2"/>
<path d="M30.035 12.2557C30.0313 11.3039 30.1873 10.4155 30.5029 9.5906C30.8184 8.76585 31.262 8.04692 31.8332 7.43414C32.4046 6.82136 33.089 6.3401 33.8866 5.99053C34.6842 5.6408 35.5588 5.46511 36.5109 5.46365C37.2332 5.46254 37.8923 5.56787 38.488 5.77932C39.0838 5.99093 39.6545 6.33427 40.2003 6.80936L40.1811 1.79926L43.4193 1.79428L43.484 18.7623L40.2459 18.7673L40.2417 17.6709C39.6997 18.1561 39.1316 18.5033 38.5374 18.7125C37.9433 18.9216 37.285 19.0267 36.5626 19.0278C35.6106 19.0293 34.7347 18.8565 33.9344 18.5092C33.1342 18.1621 32.446 17.6829 31.87 17.0719C31.2941 16.4609 30.8451 15.7433 30.5234 14.9194C30.2014 14.0956 30.0386 13.2077 30.035 12.2557ZM36.9716 15.9803C37.2266 15.98 37.4942 15.9521 37.7745 15.8963C38.0546 15.8406 38.3369 15.7466 38.6212 15.6145C38.9054 15.4823 39.1831 15.3056 39.4542 15.0841C39.7253 14.8628 39.9834 14.5904 40.2287 14.267L40.2133 10.2131C39.9654 9.89063 39.7053 9.62121 39.4325 9.40483C39.1597 9.1886 38.8807 9.01256 38.5955 8.87702C38.3102 8.74148 38.0272 8.64627 37.7466 8.59155C37.4659 8.53667 37.1981 8.50959 36.9431 8.50982C36.4417 8.51059 35.9725 8.60482 35.5355 8.7925C35.0985 8.98019 34.719 9.24219 34.3976 9.57835C34.0758 9.91451 33.8244 10.3102 33.6434 10.7651C33.4624 11.2201 33.373 11.7152 33.3752 12.2506C33.3772 12.7861 33.4703 13.281 33.6548 13.7354C33.8392 14.1898 34.0936 14.5847 34.4179 14.9198C34.7421 15.2552 35.1234 15.5158 35.5619 15.7022C36.0003 15.8883 36.4702 15.9811 36.9716 15.9803Z" fill="#F0F1F2"/>
<path d="M58.6369 15.9467C59.1214 15.946 59.5779 15.8539 60.0064 15.6705C60.4282 15.4917 60.8089 15.2287 61.1253 14.8975C61.4428 14.5657 61.692 14.1722 61.873 13.7172C62.054 13.2622 62.1434 12.7587 62.1413 12.206C62.1392 11.6621 62.0438 11.163 61.8551 10.7086C61.6663 10.2542 61.4098 9.86145 61.0857 9.53056C60.7644 9.20161 60.3824 8.93808 59.9609 8.75462C59.5353 8.56826 59.0843 8.47561 58.6084 8.47618C58.1241 8.47693 57.6676 8.57114 57.239 8.75881C56.8177 8.94145 56.4374 9.20643 56.1202 9.53821C55.8028 9.87008 55.5514 10.2636 55.3661 10.7186C55.1809 11.1735 55.0893 11.673 55.0913 12.217C55.0934 12.7694 55.1867 13.2728 55.3712 13.7272C55.5557 14.1816 55.8079 14.5743 56.128 14.9052C56.4469 15.2354 56.8296 15.4973 57.2527 15.6747C57.6826 15.8568 58.144 15.9475 58.6369 15.9467ZM58.6485 18.9935C57.7053 18.995 56.8165 18.8265 55.9822 18.4878C55.1479 18.1491 54.4175 17.6765 53.7906 17.0697C53.1635 16.463 52.6677 15.7455 52.3034 14.9175C51.939 14.0894 51.7552 13.191 51.7515 12.222C51.7479 11.2787 51.9249 10.3944 52.283 9.56963C52.6412 8.74465 53.1292 8.02581 53.7473 7.41296C54.3652 6.79994 55.0922 6.31664 55.9279 5.96257C56.7639 5.60866 57.6535 5.43082 58.5968 5.42937C59.5401 5.42791 60.429 5.60302 61.2632 5.95436C62.0975 6.30586 62.826 6.78692 63.4487 7.39803C64.0716 8.00897 64.5649 8.72646 64.9294 9.55016C65.2938 10.374 65.4776 11.2576 65.4812 12.2009C65.4849 13.1699 65.3079 14.0688 64.9498 14.8981C64.5918 15.7272 64.1015 16.4462 63.4793 17.0547C62.8568 17.6635 62.132 18.1384 61.3046 18.4796C60.4774 18.8208 59.592 18.9921 58.6485 18.9935Z" fill="#F0F1F2"/>
<path d="M68.5227 4.64713C68.2602 4.64753 68.0121 4.59672 67.778 4.49452C67.5483 4.39529 67.3392 4.25376 67.1617 4.07733C66.9843 3.90069 66.8416 3.69233 66.7412 3.46311C66.6376 3.22871 66.5842 2.97531 66.5846 2.71925C66.5836 2.45701 66.6338 2.20687 66.7355 1.969C66.8331 1.73708 66.9742 1.52609 67.1513 1.34741C67.3275 1.17043 67.5355 1.02826 67.7645 0.928321C67.9987 0.825287 68.252 0.772519 68.508 0.773419C68.7703 0.773015 69.0205 0.823828 69.2586 0.926021C69.4908 1.02416 69.7021 1.16576 69.8812 1.3432C70.0596 1.52135 70.2023 1.7319 70.3017 1.96351C70.4052 2.20107 70.4573 2.45105 70.4583 2.71346C70.4593 2.9757 70.4091 3.22386 70.3074 3.45778C70.2087 3.68725 70.0676 3.89599 69.8916 4.07312C69.7139 4.25113 69.5037 4.39339 69.2723 4.49222C69.0358 4.5949 68.7806 4.64764 68.5227 4.64713Z" fill="#F0F1F2"/>
<path d="M66.9072 5.67188L70.1454 5.66689L70.1952 18.7212L66.9571 18.7262L66.9072 5.67188Z" fill="#F0F1F2"/>
<path d="M71.659 12.1913C71.6554 11.2394 71.8113 10.3511 72.1269 9.52615C72.4425 8.7014 72.8858 7.98247 73.4572 7.36968C74.0286 6.7569 74.7131 6.27565 75.5106 5.92608C76.3081 5.57634 77.1829 5.40066 78.1347 5.3992C78.8571 5.39808 79.5163 5.50342 80.1119 5.71486C80.7076 5.92647 81.2784 6.26982 81.8241 6.7449L81.805 1.73481L85.0431 1.72983L85.1079 18.6979L81.8698 18.7029L81.8656 17.6065C81.3235 18.0916 80.7554 18.4389 80.1613 18.648C79.5671 18.8572 78.9089 18.9622 78.1865 18.9634C77.2346 18.9648 76.3585 18.792 75.5584 18.4447C74.7582 18.0976 74.07 17.6185 73.494 17.0075C72.918 16.3964 72.4691 15.6789 72.1472 14.8549C71.8254 14.0312 71.6626 13.1433 71.659 12.1913ZM78.5956 15.9159C78.8505 15.9155 79.1182 15.8876 79.3983 15.8319C79.6787 15.7761 79.9608 15.6822 80.2451 15.55C80.5294 15.4179 80.8069 15.2412 81.078 15.0197C81.3491 14.7983 81.6074 14.526 81.8526 14.2026L81.8371 10.1486C81.5894 9.82618 81.3291 9.55676 81.0564 9.34037C80.7836 9.12415 80.5047 8.9481 80.2194 8.81256C79.9341 8.67703 79.6512 8.58182 79.3705 8.5271C79.0899 8.47222 78.822 8.44514 78.5671 8.44537C78.0657 8.44614 77.5964 8.54037 77.1595 8.72805C76.7223 8.91573 76.343 9.17774 76.0215 9.5139C75.6998 9.85006 75.4484 10.2457 75.2675 10.7007C75.0865 11.1556 74.997 11.6508 74.999 12.1861C75.0011 12.7217 75.0943 13.2165 75.2788 13.6709C75.4633 14.1253 75.7176 14.5202 76.0419 14.8554C76.3662 15.1907 76.7474 15.4514 77.1857 15.6377C77.6243 15.8239 78.0942 15.9167 78.5956 15.9159Z" fill="#F0F1F2"/>
<path d="M51.4294 8.62397C49.2593 8.62731 48.3066 9.74838 48.3127 11.3352L48.341 18.7547L45.1029 18.7596L45.0749 11.4294C45.0813 8.37265 46.8356 5.36493 51.4169 5.35788" fill="#F0F1F2"/>
</svg>
