<svg width="24" height="28" viewBox="0 0 24 28" fill="none" xmlns="http://www.w3.org/2000/svg">
<path d="M19.7838 15.126C19.7625 12.9201 20.7556 11.256 22.7692 10.0271C21.6342 8.41157 19.923 7.52472 17.6711 7.35676C15.539 7.19184 13.2123 8.60566 12.3584 8.60698C11.4559 8.60837 9.38782 7.42773 7.7641 7.43022C4.41336 7.48713 0.862191 10.1125 0.882539 15.4429C0.888552 17.0181 1.18263 18.6446 1.76477 20.3192C2.543 22.5239 5.33882 27.9245 8.23336 27.8327C9.74697 27.7948 10.8136 26.7548 12.7834 26.7518C14.695 26.7489 15.6889 27.8212 17.3773 27.8186C20.2979 27.7721 22.7891 22.855 23.5116 20.6415C19.5876 18.8007 19.7842 15.2392 19.7838 15.126ZM16.3467 5.26608C17.9792 3.3164 17.8236 1.54414 17.7727 0.907025C16.3239 0.993351 14.6519 1.89835 13.702 3.00924C12.6553 4.20114 12.0431 5.67378 12.1821 7.33286C13.748 7.45013 15.1746 6.64254 16.3467 5.26608Z" fill="#F0F1F2"/>
</svg>
