<svg width="59" height="28" viewBox="0 0 59 28" fill="none" xmlns="http://www.w3.org/2000/svg">
<g clip-path="url(#clip0)">
<path d="M33.9446 2.82535L33.9614 7.2371L39.5071 7.22856L39.5132 8.80995L33.9674 8.81849L34.0172 21.844C34.0222 23.176 34.2412 24.1947 34.6756 24.9017C35.1092 25.6086 35.8534 25.9608 36.9109 25.9592C37.4113 25.9584 37.842 25.9304 38.2032 25.8741C38.5644 25.8187 38.8697 25.748 39.12 25.6645L39.3342 27.1625C38.6685 27.4685 37.779 27.6232 36.6674 27.6249C35.7499 27.6263 34.9918 27.4742 34.3932 27.1701C33.7938 26.8661 33.3201 26.444 32.9704 25.9032C32.6207 25.3623 32.3749 24.7116 32.2329 23.9485C32.0902 23.1863 32.0183 22.361 32.0149 21.4727L31.9666 8.82157L28.6723 8.82664L28.6663 7.24525L31.9606 7.24018L31.9466 3.57716L33.9446 2.82535ZM42.7182 7.22281L47.3525 19.6176C47.745 20.5884 48.0962 21.5036 48.405 22.3624C48.7139 23.222 49.009 24.0679 49.2902 24.8993L49.3735 24.8992C49.6477 24.0944 49.9436 23.254 50.2604 22.3797C50.5764 21.5054 50.9278 20.5827 51.3129 19.6107L55.8938 7.20173L57.9787 7.19852L50.0904 27.1863L48.3806 27.1889L40.6333 7.22602L42.7182 7.22281Z" fill="#F0F1F2"/>
<path d="M13.1314 3.01045C14.9002 0.669519 17.3715 0.65442 17.3715 0.65442C17.3715 0.65442 17.7477 2.85247 15.9894 4.97231C14.1128 7.23676 11.9682 6.86973 11.9682 6.86973C11.9682 6.86973 11.5589 5.09209 13.1314 3.01045ZM12.1997 8.40962C13.114 8.40821 14.8061 7.15098 17.0155 7.14758C20.8183 7.14172 22.3242 9.83989 22.3242 9.83989C22.3242 9.83989 19.4042 11.337 19.418 14.9597C19.4336 19.0463 23.0833 20.4486 23.0833 20.4486C23.0833 20.4486 20.5633 27.6091 17.1219 27.6144C15.5414 27.6169 14.3086 26.5553 12.6432 26.5579C10.9464 26.5605 9.26585 27.666 8.16963 27.6677C5.02731 27.6734 1.03125 20.89 1.01042 15.4334C0.989926 10.0639 4.33977 7.24212 7.49098 7.23727C9.54032 7.23412 11.135 8.41126 12.1997 8.40962Z" fill="#F0F1F2"/>
</g>
<defs>
<clipPath id="clip0">
<rect width="57" height="27" fill="white" transform="matrix(0.999999 -0.00153908 0.00381744 0.999993 0.954102 0.679688)"/>
</clipPath>
</defs>
</svg>
