<svg width="300" height="300" viewBox="0 0 502 522" fill="none" xmlns="http://www.w3.org/2000/svg">
<g filter="url(#filter0_d)">
<rect width="300" height="350" rx="10" transform="matrix(0.999999 -0.00153908 0.00381744 0.999993 100.304 76.0972)" fill="white"/>
</g>
<path d="M184.895 226.831C181.439 226.836 178.317 226.241 175.529 225.045C172.74 223.802 170.501 222.053 168.813 219.8C167.172 217.546 166.346 214.931 166.335 211.955C166.323 208.883 167.105 206.194 168.68 203.888C170.303 201.581 172.433 199.922 175.069 198.91C172.761 197.906 170.931 196.468 169.58 194.598C168.229 192.681 167.549 190.546 167.54 188.194C167.531 185.794 168.17 183.585 169.459 181.567C170.747 179.501 172.66 177.842 175.2 176.59C177.787 175.338 180.952 174.709 184.696 174.703C188.44 174.697 191.587 175.317 194.136 176.561C196.684 177.805 198.611 179.458 199.915 181.52C201.218 183.534 201.875 185.741 201.884 188.141C201.893 190.445 201.205 192.582 199.82 194.552C198.484 196.474 196.689 197.917 194.437 198.88C197.129 199.884 199.271 201.537 200.864 203.838C202.457 206.14 203.259 208.827 203.271 211.899C203.282 214.875 202.476 217.492 200.852 219.75C199.229 222.009 197.004 223.764 194.177 225.017C191.397 226.221 188.303 226.826 184.895 226.831ZM184.778 196.159C187.274 196.155 189.24 195.504 190.675 194.206C192.11 192.908 192.824 191.251 192.816 189.235C192.808 187.027 192.081 185.3 190.636 184.054C189.239 182.808 187.269 182.187 184.725 182.191C182.133 182.195 180.143 182.822 178.756 184.072C177.369 185.323 176.68 187.052 176.688 189.26C176.696 191.324 177.398 193.002 178.795 194.296C180.24 195.542 182.234 196.163 184.778 196.159ZM184.866 219.127C187.938 219.122 190.263 218.375 191.842 216.884C193.42 215.346 194.204 213.425 194.196 211.121C194.186 208.577 193.338 206.586 191.653 205.149C190.015 203.711 187.732 202.995 184.804 202.999C181.876 203.004 179.551 203.727 177.829 205.17C176.154 206.612 175.322 208.606 175.332 211.15C175.34 213.454 176.14 215.372 177.73 216.906C179.367 218.391 181.746 219.132 184.866 219.127ZM231.557 226.759C226.901 226.766 222.913 225.692 219.592 223.537C216.272 221.335 213.692 218.291 211.853 214.405C210.062 210.472 209.157 205.914 209.137 200.73C209.118 195.594 209.988 191.056 211.749 187.118C213.558 183.179 216.115 180.127 219.418 177.962C222.722 175.749 226.702 174.639 231.358 174.631C236.014 174.624 240.002 175.722 243.322 177.925C246.643 180.08 249.198 183.124 250.989 187.057C252.828 190.99 253.758 195.525 253.777 200.661C253.797 205.845 252.902 210.406 251.093 214.345C249.332 218.236 246.8 221.288 243.496 223.501C240.193 225.666 236.213 226.752 231.557 226.759ZM231.525 218.479C235.317 218.473 238.407 216.885 240.795 213.713C243.183 210.541 244.366 206.195 244.345 200.675C244.324 195.155 243.107 190.813 240.695 187.649C238.283 184.485 235.181 182.906 231.389 182.911C227.549 182.917 224.435 184.506 222.047 187.678C219.708 190.849 218.548 195.195 218.569 200.715C218.59 206.235 219.783 210.577 222.147 213.742C224.559 216.906 227.685 218.485 231.525 218.479ZM260.506 225.851L260.314 175.451L269.53 175.437L269.608 195.813L288.178 175.408L299.554 175.39L281.054 195.435L300.25 225.789L288.946 225.807L274.457 202.501L269.653 207.764L269.722 225.836L260.506 225.851ZM300.546 208.797L300.517 201.093L314.053 201.072L314.005 188.616L321.853 188.604L321.901 201.06L335.365 201.039L335.394 208.743L321.93 208.764L321.978 221.22L314.13 221.232L314.082 208.776L300.546 208.797Z" fill="#EF9E48"/>
<path opacity="0.7" d="M179.001 267.994L175.497 255.381L177.117 255.379L179.877 266.192L182.931 255.37L184.605 255.367L187.653 266.18L190.365 255.358L191.985 255.356L188.505 267.961L186.777 267.964L183.732 257.565L180.693 267.973L179.001 267.994ZM196.322 268.165C195.47 268.166 194.714 267.976 194.052 267.593C193.391 267.198 192.867 266.652 192.48 265.957C192.105 265.262 191.916 264.44 191.913 263.492C191.909 262.556 192.092 261.74 192.461 261.043C192.831 260.335 193.344 259.788 194.003 259.403C194.674 259.006 195.447 258.807 196.323 258.805C197.187 258.804 197.932 259.001 198.557 259.396C199.194 259.779 199.682 260.288 200.021 260.923C200.359 261.559 200.53 262.243 200.533 262.975C200.533 263.107 200.528 263.239 200.516 263.371C200.517 263.503 200.517 263.653 200.518 263.821L193.408 263.832C193.447 264.516 193.605 265.085 193.882 265.541C194.172 265.984 194.527 266.32 194.948 266.547C195.381 266.775 195.838 266.888 196.318 266.887C196.942 266.886 197.463 266.741 197.882 266.453C198.301 266.164 198.605 265.774 198.795 265.281L200.289 265.279C200.053 266.107 199.593 266.798 198.911 267.351C198.241 267.892 197.378 268.164 196.322 268.165ZM196.292 260.083C195.572 260.084 194.93 260.307 194.368 260.752C193.818 261.185 193.502 261.821 193.421 262.662L199.037 262.653C198.998 261.849 198.72 261.219 198.202 260.764C197.685 260.309 197.048 260.082 196.292 260.083ZM206.319 267.934L206.27 254.974L207.782 254.972L207.803 260.533C208.101 259.981 208.525 259.554 209.076 259.254C209.627 258.941 210.226 258.784 210.874 258.783C211.906 258.781 212.736 259.104 213.362 259.751C213.989 260.386 214.304 261.369 214.309 262.701L214.329 267.921L212.835 267.924L212.816 262.866C212.809 261.006 212.055 260.077 210.555 260.079C209.775 260.08 209.122 260.363 208.597 260.928C208.071 261.481 207.81 262.273 207.814 263.305L207.831 267.931L206.319 267.934ZM219.091 268.13C218.347 268.131 217.728 268.006 217.236 267.755C216.743 267.504 216.375 267.168 216.134 266.749C215.892 266.329 215.77 265.873 215.768 265.381C215.765 264.469 216.11 263.767 216.804 263.274C217.499 262.781 218.446 262.533 219.646 262.531L222.058 262.528L222.057 262.42C222.054 261.64 221.848 261.052 221.438 260.657C221.029 260.249 220.482 260.046 219.798 260.047C219.21 260.048 218.701 260.199 218.27 260.499C217.851 260.788 217.589 261.214 217.483 261.779L215.935 261.781C215.992 261.133 216.206 260.587 216.576 260.142C216.959 259.697 217.431 259.361 217.995 259.132C218.558 258.891 219.157 258.77 219.793 258.769C221.041 258.767 221.979 259.102 222.605 259.773C223.244 260.432 223.565 261.313 223.569 262.417L223.59 267.907L222.24 267.909L222.144 266.307C221.894 266.812 221.524 267.244 221.033 267.605C220.554 267.954 219.907 268.129 219.091 268.13ZM219.32 266.852C219.896 266.851 220.388 266.7 220.794 266.399C221.213 266.099 221.53 265.708 221.744 265.228C221.958 264.748 222.064 264.244 222.062 263.716L222.062 263.698L219.776 263.701C218.888 263.702 218.259 263.859 217.888 264.172C217.529 264.473 217.35 264.851 217.352 265.307C217.354 265.775 217.523 266.153 217.861 266.44C218.21 266.715 218.696 266.853 219.32 266.852ZM227.598 267.901L224.18 258.978L225.764 258.976L228.475 266.442L231.146 258.968L232.694 258.965L229.344 267.898L227.598 267.901ZM237.469 268.102C236.617 268.103 235.86 267.912 235.199 267.529C234.537 267.134 234.013 266.589 233.626 265.894C233.252 265.198 233.063 264.377 233.059 263.429C233.055 262.493 233.238 261.676 233.608 260.98C233.977 260.271 234.491 259.724 235.149 259.339C235.82 258.942 236.593 258.743 237.469 258.742C238.333 258.741 239.078 258.937 239.703 259.332C240.341 259.715 240.829 260.225 241.167 260.86C241.506 261.496 241.676 262.179 241.679 262.911C241.68 263.043 241.674 263.175 241.663 263.307C241.663 263.439 241.664 263.589 241.664 263.757L234.554 263.768C234.593 264.452 234.751 265.022 235.029 265.478C235.319 265.921 235.674 266.257 236.095 266.484C236.528 266.711 236.984 266.825 237.464 266.824C238.088 266.823 238.609 266.678 239.028 266.389C239.447 266.101 239.752 265.71 239.942 265.218L241.436 265.216C241.199 266.044 240.74 266.735 240.058 267.288C239.388 267.829 238.525 268.1 237.469 268.102ZM237.438 260.02C236.718 260.021 236.077 260.244 235.515 260.689C234.964 261.122 234.649 261.758 234.568 262.598L240.184 262.59C240.145 261.786 239.866 261.156 239.349 260.701C238.831 260.246 238.194 260.019 237.438 260.02ZM247.466 267.87L247.432 258.943L248.8 258.94L248.913 260.236C249.199 259.756 249.581 259.383 250.06 259.118C250.539 258.854 251.079 258.721 251.679 258.72C252.387 258.719 252.993 258.862 253.499 259.149C254.016 259.436 254.413 259.874 254.692 260.461C255.001 259.921 255.426 259.494 255.965 259.181C256.515 258.869 257.109 258.712 257.745 258.711C258.813 258.709 259.666 259.032 260.305 259.679C260.943 260.314 261.265 261.297 261.27 262.629L261.29 267.849L259.796 267.851L259.776 262.793C259.773 261.87 259.584 261.174 259.211 260.706C258.837 260.239 258.302 260.006 257.606 260.007C256.886 260.008 256.287 260.291 255.809 260.856C255.343 261.408 255.112 262.201 255.116 263.233L255.134 267.859L253.622 267.861L253.602 262.803C253.599 261.879 253.41 261.183 253.037 260.716C252.663 260.248 252.128 260.015 251.432 260.016C250.724 260.017 250.131 260.3 249.653 260.865C249.187 261.418 248.956 262.21 248.96 263.242L248.978 267.868L247.466 267.87ZM267.136 268.056C266.296 268.057 265.539 267.867 264.866 267.484C264.193 267.101 263.656 266.562 263.258 265.866C262.871 265.159 262.676 264.331 262.672 263.383C262.669 262.435 262.864 261.613 263.257 260.916C263.65 260.208 264.182 259.661 264.853 259.276C265.535 258.891 266.296 258.697 267.136 258.696C267.976 258.695 268.733 258.886 269.407 259.269C270.08 259.652 270.61 260.197 270.997 260.904C271.396 261.6 271.597 262.421 271.6 263.369C271.604 264.317 271.409 265.146 271.016 265.854C270.622 266.551 270.085 267.092 269.402 267.477C268.731 267.862 267.976 268.055 267.136 268.056ZM267.131 266.76C267.647 266.759 268.127 266.633 268.57 266.38C269.013 266.127 269.371 265.749 269.645 265.244C269.92 264.74 270.055 264.116 270.052 263.372C270.049 262.628 269.909 262.004 269.631 261.5C269.365 260.997 269.01 260.619 268.565 260.368C268.12 260.117 267.645 259.991 267.141 259.992C266.625 259.993 266.146 260.12 265.703 260.372C265.26 260.625 264.901 261.004 264.627 261.508C264.353 262.012 264.217 262.637 264.22 263.381C264.223 264.125 264.364 264.748 264.641 265.252C264.919 265.756 265.275 266.133 265.708 266.384C266.153 266.636 266.627 266.761 267.131 266.76ZM273.22 267.831L273.186 258.903L274.554 258.901L274.686 260.611C274.96 260.022 275.378 259.553 275.941 259.205C276.503 258.856 277.199 258.681 278.027 258.679L278.033 260.263L277.619 260.264C277.091 260.265 276.605 260.362 276.162 260.554C275.719 260.735 275.366 261.048 275.103 261.492C274.841 261.936 274.712 262.549 274.715 263.329L274.732 267.828L273.22 267.831ZM282.94 268.032C282.088 268.033 281.331 267.842 280.669 267.459C280.008 267.064 279.484 266.519 279.097 265.824C278.722 265.128 278.533 264.307 278.53 263.359C278.526 262.423 278.709 261.606 279.078 260.91C279.448 260.201 279.962 259.654 280.62 259.269C281.291 258.872 282.064 258.673 282.94 258.672C283.804 258.671 284.549 258.867 285.174 259.262C285.812 259.645 286.3 260.155 286.638 260.79C286.976 261.426 287.147 262.109 287.15 262.841C287.15 262.973 287.145 263.105 287.133 263.237C287.134 263.369 287.134 263.519 287.135 263.687L280.025 263.698C280.064 264.382 280.222 264.952 280.5 265.408C280.789 265.851 281.145 266.187 281.565 266.414C281.998 266.641 282.455 266.755 282.935 266.754C283.559 266.753 284.08 266.608 284.499 266.319C284.918 266.031 285.222 265.64 285.413 265.148L286.907 265.146C286.67 265.974 286.21 266.665 285.528 267.218C284.859 267.759 283.996 268.03 282.94 268.032ZM282.909 259.95C282.189 259.951 281.548 260.174 280.985 260.619C280.435 261.052 280.119 261.688 280.039 262.528L285.655 262.52C285.615 261.716 285.337 261.086 284.819 260.631C284.302 260.176 283.665 259.949 282.909 259.95ZM296.464 267.795C295.648 267.796 295.006 267.599 294.536 267.204C294.067 266.809 293.83 266.095 293.826 265.063L293.807 260.149L292.259 260.152L292.254 258.874L293.802 258.871L293.992 256.729L295.306 256.727L295.314 258.869L297.942 258.865L297.947 260.143L295.319 260.147L295.338 265.061C295.34 265.625 295.456 266.009 295.684 266.212C295.913 266.404 296.316 266.499 296.892 266.498L297.828 266.497L297.832 267.793L296.464 267.795ZM299.397 267.791L299.348 254.831L300.86 254.828L300.881 260.39C301.179 259.838 301.603 259.411 302.154 259.11C302.705 258.797 303.304 258.641 303.952 258.64C304.984 258.638 305.814 258.961 306.44 259.608C307.067 260.243 307.382 261.226 307.387 262.558L307.407 267.778L305.913 267.78L305.894 262.723C305.887 260.863 305.133 259.934 303.633 259.936C302.853 259.937 302.2 260.22 301.675 260.785C301.149 261.338 300.888 262.13 300.892 263.162L300.909 267.788L299.397 267.791ZM312.169 267.987C311.425 267.988 310.806 267.863 310.314 267.612C309.821 267.36 309.453 267.025 309.212 266.605C308.97 266.186 308.848 265.73 308.846 265.238C308.843 264.326 309.188 263.623 309.882 263.13C310.577 262.637 311.524 262.39 312.724 262.388L315.136 262.384L315.135 262.276C315.132 261.496 314.926 260.909 314.516 260.513C314.107 260.106 313.56 259.903 312.876 259.904C312.288 259.905 311.779 260.055 311.348 260.356C310.929 260.645 310.667 261.071 310.561 261.635L309.013 261.638C309.07 260.99 309.284 260.443 309.654 259.999C310.037 259.554 310.509 259.217 311.073 258.989C311.636 258.748 312.235 258.627 312.871 258.626C314.119 258.624 315.057 258.958 315.683 259.629C316.322 260.288 316.643 261.17 316.647 262.274L316.668 267.764L315.318 267.766L315.222 266.164C314.972 266.669 314.602 267.101 314.111 267.462C313.632 267.811 312.985 267.986 312.169 267.987ZM312.398 266.709C312.974 266.708 313.466 266.557 313.872 266.256C314.291 265.956 314.608 265.565 314.822 265.085C315.036 264.604 315.142 264.1 315.14 263.572L315.14 263.554L312.854 263.558C311.966 263.559 311.337 263.716 310.966 264.029C310.607 264.329 310.428 264.708 310.43 265.164C310.432 265.632 310.601 266.009 310.939 266.297C311.288 266.572 311.774 266.709 312.398 266.709ZM318.436 267.761L318.402 258.833L319.77 258.831L319.866 260.433C320.152 259.869 320.565 259.424 321.103 259.099C321.642 258.774 322.254 258.611 322.938 258.61C323.994 258.609 324.835 258.931 325.461 259.578C326.1 260.213 326.421 261.197 326.426 262.529L326.446 267.749L324.934 267.751L324.915 262.693C324.908 260.833 324.136 259.904 322.6 259.907C321.832 259.908 321.192 260.191 320.678 260.756C320.176 261.309 319.927 262.101 319.931 263.133L319.948 267.759L318.436 267.761ZM220.71 293.128C219.642 293.129 218.753 292.861 218.043 292.322C217.332 291.783 216.916 291.051 216.792 290.128L218.34 290.125C218.438 290.593 218.686 291.001 219.083 291.348C219.492 291.683 220.039 291.851 220.723 291.85C221.359 291.849 221.826 291.716 222.125 291.451C222.424 291.175 222.573 290.851 222.572 290.479C222.569 289.939 222.37 289.579 221.973 289.4C221.589 289.22 221.042 289.059 220.334 288.916C219.853 288.821 219.373 288.684 218.892 288.504C218.411 288.325 218.008 288.074 217.683 287.75C217.358 287.415 217.194 286.977 217.192 286.437C217.189 285.657 217.475 285.021 218.049 284.528C218.635 284.023 219.426 283.77 220.422 283.768C221.37 283.767 222.145 284.005 222.747 284.484C223.36 284.952 223.717 285.623 223.816 286.499L222.322 286.501C222.261 286.045 222.061 285.692 221.724 285.44C221.399 285.177 220.961 285.045 220.409 285.046C219.869 285.047 219.449 285.162 219.15 285.39C218.863 285.618 218.72 285.919 218.722 286.291C218.723 286.651 218.91 286.932 219.283 287.136C219.668 287.339 220.184 287.512 220.833 287.655C221.385 287.775 221.908 287.924 222.4 288.103C222.905 288.27 223.314 288.528 223.627 288.875C223.953 289.211 224.117 289.702 224.119 290.35C224.134 291.154 223.831 291.821 223.209 292.35C222.599 292.867 221.766 293.126 220.71 293.128ZM228.913 292.899C228.097 292.9 227.454 292.703 226.984 292.308C226.515 291.913 226.278 291.199 226.274 290.167L226.255 285.253L224.707 285.255L224.702 283.977L226.25 283.975L226.44 281.833L227.754 281.831L227.762 283.973L230.39 283.969L230.395 285.247L227.767 285.251L227.786 290.165C227.788 290.729 227.904 291.113 228.132 291.316C228.361 291.508 228.764 291.603 229.34 291.602L230.276 291.601L230.281 292.897L228.913 292.899ZM239.623 283.954L239.657 292.882L238.289 292.885L238.193 291.283C237.907 291.847 237.495 292.292 236.956 292.617C236.418 292.941 235.806 293.104 235.122 293.105C234.066 293.107 233.219 292.79 232.581 292.155C231.954 291.508 231.638 290.519 231.633 289.187L231.613 283.967L233.125 283.964L233.145 289.022C233.152 290.882 233.923 291.811 235.459 291.809C236.227 291.808 236.862 291.531 237.364 290.978C237.878 290.413 238.133 289.615 238.129 288.583L238.111 283.957L239.623 283.954ZM245.697 293.089C244.809 293.09 244.028 292.888 243.355 292.481C242.693 292.074 242.175 291.517 241.8 290.809C241.438 290.102 241.255 289.298 241.251 288.398C241.248 287.498 241.431 286.7 241.8 286.003C242.169 285.295 242.683 284.742 243.342 284.345C244 283.936 244.779 283.731 245.679 283.729C246.411 283.728 247.06 283.877 247.625 284.176C248.19 284.475 248.63 284.895 248.944 285.434L248.923 279.908L250.435 279.906L250.484 292.866L249.116 292.868L248.967 291.392C248.68 291.825 248.268 292.215 247.729 292.564C247.19 292.913 246.513 293.088 245.697 293.089ZM245.854 291.775C246.454 291.774 246.981 291.635 247.436 291.358C247.903 291.07 248.262 290.673 248.512 290.169C248.774 289.664 248.904 289.076 248.901 288.404C248.899 287.732 248.764 287.144 248.498 286.641C248.245 286.137 247.883 285.748 247.414 285.472C246.957 285.185 246.428 285.042 245.828 285.043C245.24 285.044 244.713 285.189 244.246 285.477C243.791 285.754 243.433 286.145 243.17 286.649C242.92 287.153 242.797 287.742 242.799 288.414C242.802 289.086 242.93 289.673 243.184 290.177C243.45 290.681 243.811 291.076 244.268 291.363C244.737 291.639 245.266 291.776 245.854 291.775ZM256.464 293.073C255.612 293.074 254.855 292.883 254.194 292.5C253.532 292.105 253.008 291.56 252.621 290.864C252.247 290.169 252.058 289.347 252.054 288.399C252.05 287.463 252.233 286.647 252.603 285.951C252.972 285.242 253.486 284.695 254.144 284.31C254.815 283.913 255.588 283.714 256.464 283.713C257.328 283.711 258.073 283.908 258.698 284.303C259.336 284.686 259.824 285.195 260.162 285.831C260.501 286.466 260.671 287.15 260.674 287.882C260.674 288.014 260.669 288.146 260.657 288.278C260.658 288.41 260.659 288.56 260.659 288.728L253.549 288.739C253.588 289.423 253.746 289.993 254.024 290.448C254.313 290.892 254.669 291.227 255.09 291.455C255.522 291.682 255.979 291.795 256.459 291.795C257.083 291.794 257.604 291.649 258.023 291.36C258.442 291.072 258.747 290.681 258.937 290.189L260.431 290.186C260.194 291.015 259.735 291.706 259.053 292.259C258.383 292.8 257.52 293.071 256.464 293.073ZM256.433 284.991C255.713 284.992 255.072 285.215 254.509 285.66C253.959 286.092 253.644 286.729 253.563 287.569L259.179 287.56C259.14 286.756 258.861 286.127 258.344 285.672C257.826 285.216 257.189 284.989 256.433 284.991ZM262.197 292.848L262.163 283.92L263.531 283.918L263.627 285.52C263.913 284.955 264.325 284.51 264.864 284.186C265.403 283.861 266.014 283.698 266.698 283.697C267.754 283.695 268.595 284.018 269.222 284.665C269.86 285.3 270.182 286.283 270.187 287.615L270.207 292.835L268.695 292.838L268.676 287.78C268.669 285.92 267.897 284.991 266.361 284.993C265.593 284.995 264.952 285.277 264.438 285.842C263.936 286.395 263.687 287.187 263.691 288.219L263.709 292.845L262.197 292.848ZM275.526 292.827C274.71 292.828 274.067 292.631 273.597 292.236C273.128 291.841 272.891 291.127 272.887 290.095L272.869 285.181L271.321 285.184L271.316 283.906L272.864 283.903L273.053 281.761L274.367 281.759L274.376 283.901L277.004 283.897L277.009 285.175L274.381 285.179L274.399 290.093C274.401 290.657 274.517 291.041 274.746 291.244C274.974 291.436 275.377 291.531 275.953 291.531L276.889 291.529L276.894 292.825L275.526 292.827ZM281.879 293.033C280.811 293.035 279.922 292.766 279.212 292.228C278.502 291.689 278.086 290.957 277.962 290.033L279.51 290.031C279.608 290.499 279.855 290.907 280.253 291.254C280.662 291.589 281.209 291.756 281.893 291.755C282.529 291.754 282.996 291.622 283.295 291.357C283.594 291.081 283.743 290.757 283.741 290.385C283.739 289.845 283.54 289.485 283.143 289.305C282.759 289.126 282.212 288.965 281.503 288.822C281.023 288.727 280.543 288.589 280.062 288.41C279.581 288.231 279.178 287.98 278.853 287.656C278.528 287.321 278.364 286.883 278.362 286.343C278.359 285.563 278.645 284.926 279.219 284.434C279.805 283.929 280.596 283.675 281.592 283.674C282.54 283.672 283.315 283.911 283.917 284.39C284.53 284.857 284.887 285.529 284.986 286.405L283.492 286.407C283.43 285.951 283.231 285.597 282.894 285.346C282.569 285.082 282.131 284.951 281.579 284.952C281.039 284.953 280.619 285.067 280.32 285.296C280.033 285.524 279.89 285.825 279.891 286.197C279.893 286.557 280.08 286.838 280.453 287.042C280.837 287.245 281.354 287.418 282.003 287.561C282.555 287.68 283.078 287.83 283.57 288.009C284.075 288.176 284.484 288.433 284.797 288.781C285.123 289.116 285.286 289.608 285.289 290.256C285.304 291.06 285.001 291.727 284.379 292.256C283.768 292.773 282.935 293.032 281.879 293.033Z" fill="#0F2137"/>
<defs>
<filter id="filter0_d" x="0.341797" y="0.650879" width="501.145" height="520.429" filterUnits="userSpaceOnUse" color-interpolation-filters="sRGB">
<feFlood flood-opacity="0" result="BackgroundImageFix"/>
<feColorMatrix in="SourceAlpha" type="matrix" values="0 0 0 0 0 0 0 0 0 0 0 0 0 0 0 0 0 0 127 0"/>
<feOffset dy="25"/>
<feGaussianBlur stdDeviation="50"/>
<feColorMatrix type="matrix" values="0 0 0 0 0.269792 0 0 0 0 0.346104 0 0 0 0 0.616667 0 0 0 0.08 0"/>
<feBlend mode="normal" in2="BackgroundImageFix" result="effect1_dropShadow"/>
<feBlend mode="normal" in="SourceGraphic" in2="effect1_dropShadow" result="shape"/>
</filter>
</defs>
</svg>
