<svg width="350" height="350" viewBox="0 0 502 521" fill="none" xmlns="http://www.w3.org/2000/svg">
<g filter="url(#filter0_d)">
<rect width="300" height="350" rx="10" transform="matrix(0.999999 -0.00153908 0.00381744 0.999993 100.048 75.5667)" fill="white"/>
</g>
<path d="M181.465 225.441L181.313 185.553L173.04 187.51L173.013 180.454L185.161 175.036L190.849 175.027L191.041 225.426L181.465 225.441ZM217.388 226.25C213.693 226.256 210.498 225.612 207.805 224.321C205.16 223.029 203.065 221.256 201.521 219.002C200.024 216.701 199.15 214.11 198.899 211.23L207.899 211.217C208.339 213.28 209.402 215.006 211.087 216.396C212.772 217.737 214.863 218.406 217.359 218.402C220.047 218.398 222.227 217.41 223.899 215.44C225.62 213.469 226.474 211.02 226.463 208.092C226.452 205.068 225.579 202.669 223.844 200.896C222.157 199.123 220.018 198.238 217.426 198.242C215.266 198.245 213.396 198.776 211.816 199.835C210.236 200.893 209.113 202.215 208.447 203.8L199.591 203.813L203.801 175.007L231.737 174.964L231.768 183.028L210.744 183.06L208.484 194.728C209.536 193.574 210.972 192.636 212.793 191.913C214.614 191.142 216.653 190.755 218.909 190.752C222.509 190.746 225.512 191.557 227.918 193.186C230.324 194.766 232.156 196.875 233.415 199.513C234.672 202.103 235.307 204.934 235.319 208.006C235.332 211.51 234.576 214.631 233.051 217.37C231.573 220.108 229.469 222.271 226.739 223.86C224.057 225.448 220.94 226.244 217.388 226.25ZM263.129 226.179C258.473 226.187 254.485 225.113 251.165 222.958C247.844 220.755 245.264 217.711 243.426 213.826C241.635 209.893 240.729 205.334 240.709 200.15C240.69 195.014 241.56 190.477 243.321 186.538C245.13 182.599 247.687 179.547 250.991 177.382C254.294 175.169 258.274 174.059 262.93 174.052C267.586 174.045 271.574 175.143 274.895 177.345C278.215 179.5 280.77 182.544 282.561 186.478C284.4 190.411 285.33 194.945 285.349 200.081C285.369 205.265 284.475 209.827 282.666 213.765C280.904 217.656 278.372 220.708 275.069 222.921C271.765 225.086 267.785 226.172 263.129 226.179ZM263.097 217.9C266.889 217.894 269.979 216.305 272.367 213.133C274.755 209.962 275.938 205.616 275.917 200.096C275.896 194.576 274.68 190.234 272.268 187.069C269.856 183.905 266.753 182.326 262.961 182.332C259.122 182.338 256.008 183.927 253.62 187.098C251.28 190.27 250.12 194.616 250.141 200.136C250.162 205.655 251.355 209.998 253.719 213.162C256.131 216.326 259.257 217.905 263.097 217.9ZM291.15 208.28L291.12 200.576L304.656 200.556L304.609 188.1L312.457 188.088L312.504 200.544L325.968 200.523L325.998 208.227L312.534 208.247L312.581 220.703L304.733 220.715L304.686 208.26L291.15 208.28Z" fill="#FF753A"/>
<path opacity="0.7" d="M175.19 267.451L175.142 254.851L182.81 254.839L182.814 256.081L176.658 256.091L176.675 260.518L181.913 260.51L181.918 261.734L176.68 261.742L176.702 267.448L175.19 267.451ZM184.215 267.437L184.181 258.509L185.549 258.507L185.681 260.217C185.955 259.628 186.373 259.16 186.936 258.811C187.499 258.462 188.194 258.287 189.022 258.285L189.028 259.869L188.614 259.87C188.086 259.871 187.6 259.968 187.157 260.16C186.714 260.341 186.361 260.654 186.099 261.098C185.836 261.542 185.707 262.155 185.71 262.935L185.727 267.435L184.215 267.437ZM193.935 267.638C193.083 267.639 192.326 267.448 191.665 267.065C191.003 266.67 190.479 266.125 190.092 265.43C189.718 264.734 189.529 263.913 189.525 262.965C189.521 262.029 189.704 261.212 190.074 260.516C190.443 259.807 190.957 259.261 191.615 258.875C192.286 258.478 193.059 258.279 193.935 258.278C194.799 258.277 195.544 258.473 196.169 258.868C196.807 259.252 197.295 259.761 197.633 260.396C197.972 261.032 198.142 261.715 198.145 262.447C198.146 262.579 198.14 262.711 198.129 262.843C198.129 262.975 198.13 263.125 198.13 263.293L191.02 263.304C191.059 263.988 191.217 264.558 191.495 265.014C191.784 265.457 192.14 265.793 192.561 266.02C192.993 266.247 193.45 266.361 193.93 266.36C194.554 266.359 195.075 266.214 195.494 265.926C195.913 265.637 196.218 265.246 196.408 264.754L197.902 264.752C197.665 265.58 197.206 266.271 196.524 266.824C195.854 267.365 194.991 267.636 193.935 267.638ZM193.904 259.556C193.184 259.557 192.543 259.78 191.98 260.225C191.43 260.658 191.115 261.294 191.034 262.134L196.65 262.126C196.611 261.322 196.332 260.692 195.815 260.237C195.297 259.782 194.66 259.555 193.904 259.556ZM203.683 267.623C202.831 267.624 202.074 267.433 201.413 267.05C200.751 266.655 200.227 266.11 199.84 265.415C199.466 264.719 199.277 263.898 199.273 262.95C199.269 262.014 199.452 261.197 199.822 260.501C200.191 259.792 200.705 259.246 201.363 258.86C202.034 258.463 202.807 258.264 203.683 258.263C204.547 258.262 205.292 258.458 205.917 258.853C206.555 259.237 207.043 259.746 207.381 260.381C207.72 261.017 207.89 261.7 207.893 262.432C207.894 262.564 207.888 262.696 207.877 262.828C207.877 262.96 207.878 263.11 207.878 263.278L200.768 263.289C200.807 263.973 200.965 264.543 201.243 264.999C201.532 265.442 201.888 265.778 202.309 266.005C202.742 266.232 203.198 266.346 203.678 266.345C204.302 266.344 204.823 266.199 205.242 265.911C205.661 265.622 205.966 265.231 206.156 264.739L207.65 264.737C207.413 265.565 206.954 266.256 206.272 266.809C205.602 267.35 204.739 267.621 203.683 267.623ZM203.652 259.541C202.932 259.542 202.291 259.765 201.729 260.21C201.178 260.643 200.863 261.279 200.782 262.119L206.398 262.111C206.359 261.307 206.08 260.677 205.563 260.222C205.045 259.767 204.408 259.54 203.652 259.541ZM217.749 267.601C216.909 267.603 216.152 267.412 215.478 267.029C214.805 266.646 214.269 266.107 213.87 265.411C213.483 264.704 213.288 263.876 213.285 262.928C213.281 261.98 213.476 261.158 213.869 260.461C214.263 259.753 214.794 259.206 215.465 258.821C216.148 258.436 216.909 258.243 217.749 258.241C218.589 258.24 219.346 258.431 220.019 258.814C220.692 259.197 221.223 259.742 221.609 260.449C222.008 261.145 222.209 261.966 222.213 262.914C222.216 263.862 222.021 264.691 221.628 265.399C221.235 266.096 220.697 266.637 220.014 267.022C219.344 267.407 218.589 267.6 217.749 267.601ZM217.744 266.305C218.26 266.304 218.739 266.178 219.182 265.925C219.625 265.672 219.984 265.294 220.258 264.789C220.532 264.285 220.668 263.661 220.665 262.917C220.662 262.173 220.521 261.549 220.244 261.045C219.978 260.542 219.622 260.164 219.177 259.913C218.732 259.662 218.258 259.536 217.754 259.537C217.238 259.538 216.758 259.665 216.315 259.917C215.872 260.17 215.514 260.549 215.24 261.053C214.965 261.558 214.83 262.182 214.833 262.926C214.836 263.67 214.976 264.294 215.254 264.797C215.532 265.301 215.887 265.678 216.32 265.929C216.765 266.181 217.24 266.306 217.744 266.305ZM223.832 267.376L223.798 258.448L225.166 258.446L225.262 260.048C225.548 259.483 225.96 259.039 226.499 258.714C227.038 258.389 227.649 258.226 228.333 258.225C229.389 258.223 230.23 258.546 230.857 259.193C231.495 259.828 231.817 260.812 231.822 262.144L231.842 267.364L230.33 267.366L230.311 262.308C230.304 260.448 229.532 259.519 227.996 259.522C227.228 259.523 226.587 259.806 226.073 260.37C225.571 260.923 225.322 261.716 225.326 262.748L225.344 267.374L223.832 267.376ZM233.633 267.361L233.583 254.401L235.095 254.399L235.145 267.358L233.633 267.361ZM237.999 256.446C237.699 256.447 237.447 256.351 237.242 256.159C237.05 255.956 236.953 255.704 236.951 255.404C236.95 255.116 237.045 254.876 237.237 254.683C237.44 254.491 237.692 254.395 237.992 254.394C238.28 254.394 238.526 254.489 238.731 254.681C238.935 254.873 239.038 255.113 239.039 255.401C239.041 255.701 238.94 255.953 238.736 256.157C238.533 256.349 238.287 256.446 237.999 256.446ZM237.285 267.355L237.251 258.427L238.763 258.425L238.797 267.353L237.285 267.355ZM240.93 267.35L240.896 258.422L242.264 258.42L242.36 260.021C242.646 259.457 243.058 259.012 243.597 258.687C244.135 258.363 244.747 258.2 245.431 258.199C246.487 258.197 247.328 258.52 247.954 259.167C248.593 259.802 248.915 260.785 248.92 262.117L248.94 267.337L247.428 267.34L247.408 262.282C247.401 260.422 246.63 259.493 245.094 259.495C244.326 259.496 243.685 259.779 243.171 260.344C242.669 260.897 242.42 261.689 242.424 262.721L242.442 267.347L240.93 267.35ZM254.745 267.544C253.893 267.546 253.137 267.355 252.475 266.972C251.814 266.577 251.289 266.032 250.903 265.336C250.528 264.641 250.339 263.819 250.335 262.871C250.332 261.935 250.515 261.119 250.884 260.422C251.253 259.714 251.767 259.167 252.426 258.782C253.096 258.385 253.87 258.186 254.746 258.184C255.61 258.183 256.354 258.38 256.98 258.775C257.617 259.158 258.105 259.667 258.444 260.303C258.782 260.938 258.953 261.622 258.955 262.354C258.956 262.486 258.95 262.618 258.939 262.75C258.939 262.882 258.94 263.032 258.941 263.2L251.831 263.211C251.869 263.895 252.028 264.465 252.305 264.92C252.595 265.364 252.95 265.699 253.371 265.926C253.804 266.154 254.26 266.267 254.74 266.266C255.364 266.265 255.886 266.121 256.305 265.832C256.724 265.543 257.028 265.153 257.218 264.661L258.712 264.658C258.475 265.487 258.016 266.177 257.334 266.73C256.664 267.271 255.801 267.543 254.745 267.544ZM254.714 259.462C253.994 259.463 253.353 259.686 252.791 260.131C252.241 260.564 251.925 261.201 251.844 262.041L257.46 262.032C257.421 261.228 257.143 260.599 256.625 260.143C256.107 259.688 255.47 259.461 254.714 259.462ZM268.27 267.308C267.454 267.309 266.811 267.112 266.342 266.716C265.872 266.321 265.636 265.608 265.632 264.576L265.613 259.662L264.065 259.664L264.06 258.386L265.608 258.384L265.798 256.241L267.112 256.239L267.12 258.381L269.748 258.377L269.753 259.655L267.125 259.659L267.144 264.573C267.146 265.137 267.261 265.521 267.49 265.725C267.719 265.916 268.121 266.012 268.697 266.011L269.633 266.009L269.638 267.305L268.27 267.308ZM278.981 258.363L279.015 267.291L277.647 267.293L277.551 265.691C277.265 266.256 276.853 266.7 276.314 267.025C275.775 267.35 275.164 267.513 274.48 267.514C273.424 267.516 272.577 267.199 271.938 266.564C271.312 265.917 270.996 264.927 270.991 263.595L270.971 258.375L272.483 258.373L272.502 263.431C272.509 265.291 273.281 266.22 274.817 266.217C275.585 266.216 276.22 265.939 276.722 265.387C277.236 264.822 277.491 264.023 277.487 262.991L277.469 258.365L278.981 258.363ZM284.532 267.282C283.716 267.284 283.073 267.087 282.604 266.691C282.134 266.296 281.897 265.583 281.893 264.551L281.875 259.637L280.327 259.639L280.322 258.361L281.87 258.359L282.06 256.216L283.374 256.214L283.382 258.356L286.01 258.352L286.015 259.63L283.387 259.634L283.405 264.548C283.408 265.112 283.523 265.496 283.752 265.7C283.981 265.891 284.383 265.987 284.959 265.986L285.895 265.984L285.9 267.28L284.532 267.282ZM291.288 267.488C290.448 267.489 289.691 267.299 289.017 266.916C288.344 266.533 287.808 265.993 287.409 265.298C287.022 264.591 286.827 263.763 286.824 262.815C286.82 261.867 287.015 261.045 287.408 260.348C287.802 259.639 288.333 259.093 289.004 258.708C289.687 258.323 290.448 258.129 291.288 258.128C292.128 258.127 292.885 258.318 293.558 258.701C294.231 259.084 294.762 259.629 295.148 260.336C295.547 261.032 295.748 261.853 295.752 262.801C295.755 263.749 295.56 264.578 295.167 265.286C294.774 265.983 294.236 266.524 293.553 266.909C292.883 267.294 292.128 267.487 291.288 267.488ZM291.283 266.192C291.799 266.191 292.278 266.065 292.721 265.812C293.164 265.559 293.523 265.181 293.797 264.676C294.071 264.172 294.206 263.548 294.204 262.804C294.201 262.06 294.06 261.436 293.782 260.932C293.517 260.429 293.161 260.051 292.716 259.8C292.271 259.549 291.797 259.423 291.293 259.424C290.777 259.425 290.297 259.552 289.854 259.804C289.411 260.057 289.053 260.436 288.778 260.94C288.504 261.444 288.369 262.069 288.372 262.813C288.374 263.557 288.515 264.18 288.793 264.684C289.071 265.187 289.426 265.565 289.859 265.816C290.304 266.068 290.779 266.193 291.283 266.192ZM297.371 267.263L297.337 258.335L298.705 258.333L298.837 260.042C299.111 259.454 299.529 258.985 300.092 258.637C300.655 258.288 301.35 258.113 302.178 258.111L302.184 259.695L301.77 259.696C301.242 259.697 300.757 259.794 300.313 259.986C299.87 260.167 299.517 260.479 299.255 260.924C298.993 261.368 298.863 261.98 298.866 262.76L298.883 267.26L297.371 267.263ZM304.286 256.344C303.986 256.345 303.734 256.249 303.529 256.057C303.337 255.854 303.24 255.602 303.238 255.302C303.237 255.014 303.332 254.774 303.524 254.581C303.727 254.389 303.979 254.293 304.279 254.292C304.567 254.292 304.813 254.387 305.018 254.579C305.222 254.771 305.325 255.01 305.326 255.298C305.328 255.598 305.227 255.851 305.023 256.055C304.82 256.247 304.574 256.344 304.286 256.344ZM303.572 267.253L303.538 258.325L305.05 258.323L305.084 267.251L303.572 267.253ZM310.188 267.459C309.444 267.46 308.825 267.335 308.332 267.084C307.839 266.833 307.472 266.497 307.23 266.078C306.989 265.658 306.867 265.202 306.865 264.71C306.862 263.798 307.207 263.096 307.901 262.603C308.595 262.109 309.542 261.862 310.742 261.86L313.154 261.856L313.154 261.748C313.151 260.968 312.945 260.381 312.535 259.985C312.125 259.578 311.579 259.375 310.895 259.376C310.307 259.377 309.797 259.528 309.366 259.828C308.947 260.117 308.685 260.543 308.579 261.107L307.031 261.11C307.089 260.462 307.303 259.915 307.673 259.471C308.055 259.026 308.528 258.69 309.091 258.461C309.654 258.22 310.254 258.099 310.89 258.098C312.138 258.096 313.075 258.431 313.702 259.102C314.34 259.761 314.662 260.642 314.666 261.746L314.687 267.236L313.337 267.238L313.241 265.636C312.991 266.141 312.62 266.573 312.13 266.934C311.651 267.283 311.004 267.458 310.188 267.459ZM310.417 266.181C310.993 266.18 311.484 266.029 311.891 265.728C312.31 265.428 312.626 265.037 312.84 264.557C313.055 264.077 313.161 263.572 313.159 263.044L313.159 263.026L310.873 263.03C309.985 263.031 309.355 263.188 308.984 263.501C308.626 263.801 308.447 264.18 308.449 264.636C308.451 265.104 308.62 265.481 308.957 265.769C309.306 266.044 309.793 266.182 310.417 266.181ZM316.455 267.233L316.406 254.273L317.918 254.271L317.967 267.231L316.455 267.233ZM323.366 267.439C322.298 267.44 321.409 267.172 320.699 266.633C319.989 266.094 319.572 265.363 319.449 264.439L320.997 264.436C321.094 264.904 321.342 265.312 321.739 265.659C322.149 265.995 322.695 266.162 323.379 266.161C324.015 266.16 324.483 266.027 324.782 265.763C325.081 265.486 325.229 265.162 325.228 264.79C325.226 264.25 325.026 263.89 324.63 263.711C324.245 263.531 323.699 263.37 322.99 263.227C322.51 263.132 322.029 262.995 321.548 262.816C321.068 262.636 320.665 262.385 320.339 262.061C320.014 261.726 319.851 261.288 319.848 260.748C319.845 259.968 320.131 259.332 320.705 258.839C321.291 258.334 322.082 258.081 323.078 258.079C324.026 258.078 324.801 258.317 325.403 258.796C326.017 259.263 326.373 259.934 326.473 260.81L324.979 260.812C324.917 260.356 324.718 260.003 324.381 259.751C324.056 259.488 323.617 259.356 323.065 259.357C322.525 259.358 322.106 259.473 321.806 259.701C321.519 259.93 321.377 260.23 321.378 260.602C321.379 260.962 321.566 261.243 321.939 261.447C322.324 261.65 322.841 261.824 323.489 261.967C324.042 262.086 324.564 262.235 325.057 262.414C325.562 262.581 325.97 262.839 326.284 263.186C326.609 263.522 326.773 264.013 326.775 264.661C326.791 265.465 326.487 266.132 325.865 266.661C325.255 267.178 324.422 267.437 323.366 267.439ZM192.791 293.424L189.373 284.501L190.957 284.498L193.668 291.964L196.339 284.49L197.887 284.488L194.537 293.421L192.791 293.424ZM199.981 282.505C199.681 282.505 199.428 282.409 199.223 282.218C199.031 282.014 198.934 281.762 198.933 281.462C198.931 281.174 199.027 280.934 199.218 280.742C199.421 280.549 199.673 280.453 199.973 280.453C200.261 280.452 200.507 280.548 200.712 280.739C200.917 280.931 201.019 281.171 201.021 281.459C201.022 281.759 200.921 282.011 200.717 282.215C200.514 282.408 200.269 282.504 199.981 282.505ZM199.266 293.414L199.232 284.486L200.744 284.483L200.778 293.411L199.266 293.414ZM206.962 293.618C206.074 293.619 205.293 293.416 204.619 293.009C203.958 292.602 203.44 292.045 203.065 291.338C202.702 290.63 202.519 289.827 202.516 288.927C202.512 288.027 202.695 287.228 203.065 286.532C203.434 285.823 203.948 285.27 204.606 284.873C205.265 284.464 206.044 284.259 206.944 284.258C207.676 284.257 208.324 284.406 208.89 284.705C209.455 285.004 209.894 285.423 210.208 285.963L210.187 280.437L211.699 280.435L211.749 293.394L210.381 293.397L210.231 291.921C209.945 292.353 209.532 292.744 208.994 293.093C208.455 293.442 207.778 293.617 206.962 293.618ZM207.119 292.304C207.719 292.303 208.246 292.164 208.701 291.887C209.168 291.598 209.526 291.202 209.777 290.697C210.039 290.193 210.168 289.605 210.166 288.933C210.163 288.261 210.029 287.673 209.763 287.17C209.509 286.666 209.148 286.276 208.679 286.001C208.221 285.714 207.693 285.571 207.093 285.572C206.505 285.573 205.977 285.717 205.511 286.006C205.056 286.283 204.697 286.673 204.435 287.178C204.185 287.682 204.061 288.27 204.064 288.942C204.066 289.614 204.195 290.202 204.449 290.706C204.714 291.209 205.076 291.605 205.533 291.892C206.002 292.167 206.531 292.304 207.119 292.304ZM217.728 293.601C216.876 293.603 216.12 293.412 215.458 293.029C214.797 292.634 214.273 292.089 213.886 291.393C213.511 290.698 213.322 289.876 213.318 288.928C213.315 287.992 213.498 287.176 213.867 286.479C214.236 285.771 214.75 285.224 215.409 284.839C216.079 284.442 216.853 284.243 217.729 284.241C218.593 284.24 219.337 284.437 219.963 284.832C220.6 285.215 221.088 285.724 221.427 286.36C221.765 286.995 221.936 287.679 221.939 288.411C221.939 288.543 221.934 288.675 221.922 288.807C221.923 288.939 221.923 289.089 221.924 289.257L214.814 289.268C214.852 289.952 215.011 290.521 215.288 290.977C215.578 291.421 215.933 291.756 216.354 291.983C216.787 292.211 217.243 292.324 217.723 292.323C218.347 292.322 218.869 292.178 219.288 291.889C219.707 291.6 220.011 291.21 220.201 290.717L221.695 290.715C221.459 291.544 220.999 292.234 220.317 292.787C219.647 293.328 218.784 293.6 217.728 293.601ZM217.698 285.519C216.978 285.52 216.336 285.743 215.774 286.188C215.224 286.621 214.908 287.258 214.827 288.098L220.443 288.089C220.404 287.285 220.126 286.656 219.608 286.2C219.09 285.745 218.454 285.518 217.698 285.519ZM227.53 293.586C226.69 293.587 225.934 293.397 225.26 293.014C224.587 292.631 224.051 292.092 223.652 291.396C223.265 290.689 223.07 289.861 223.067 288.913C223.063 287.965 223.258 287.143 223.651 286.446C224.044 285.738 224.576 285.191 225.247 284.806C225.929 284.421 226.691 284.227 227.531 284.226C228.371 284.225 229.127 284.416 229.801 284.799C230.474 285.182 231.004 285.727 231.391 286.434C231.79 287.13 231.991 287.951 231.995 288.899C231.998 289.847 231.803 290.676 231.41 291.384C231.017 292.081 230.479 292.622 229.796 293.007C229.126 293.392 228.37 293.585 227.53 293.586ZM227.525 292.29C228.041 292.289 228.521 292.163 228.964 291.91C229.407 291.657 229.766 291.279 230.04 290.774C230.314 290.27 230.449 289.646 230.447 288.902C230.444 288.158 230.303 287.534 230.025 287.03C229.759 286.527 229.404 286.149 228.959 285.898C228.514 285.647 228.04 285.521 227.536 285.522C227.02 285.523 226.54 285.65 226.097 285.902C225.654 286.155 225.295 286.534 225.021 287.038C224.747 287.542 224.612 288.167 224.615 288.911C224.617 289.655 224.758 290.278 225.036 290.782C225.314 291.286 225.669 291.663 226.102 291.914C226.547 292.166 227.021 292.291 227.525 292.29ZM237.035 293.572C235.967 293.573 235.078 293.305 234.368 292.766C233.658 292.227 233.241 291.495 233.117 290.572L234.665 290.569C234.763 291.037 235.011 291.445 235.408 291.792C235.817 292.127 236.364 292.295 237.048 292.294C237.684 292.293 238.151 292.16 238.45 291.895C238.749 291.619 238.898 291.295 238.897 290.923C238.895 290.383 238.695 290.023 238.298 289.844C237.914 289.664 237.367 289.503 236.659 289.36C236.178 289.265 235.698 289.128 235.217 288.948C234.736 288.769 234.333 288.518 234.008 288.194C233.683 287.859 233.519 287.421 233.517 286.881C233.514 286.101 233.8 285.465 234.374 284.972C234.96 284.467 235.751 284.214 236.747 284.212C237.695 284.211 238.47 284.449 239.072 284.928C239.686 285.395 240.042 286.067 240.141 286.943L238.647 286.945C238.586 286.489 238.386 286.135 238.049 285.884C237.724 285.62 237.286 285.489 236.734 285.49C236.194 285.491 235.774 285.605 235.475 285.834C235.188 286.062 235.045 286.363 235.047 286.735C235.048 287.095 235.235 287.376 235.608 287.58C235.993 287.783 236.509 287.956 237.158 288.099C237.71 288.219 238.233 288.368 238.726 288.547C239.23 288.714 239.639 288.972 239.953 289.319C240.278 289.655 240.442 290.146 240.444 290.794C240.459 291.598 240.156 292.265 239.534 292.794C238.924 293.311 238.091 293.57 237.035 293.572ZM249.348 293.553C248.604 293.554 247.986 293.429 247.493 293.177C247 292.926 246.633 292.591 246.391 292.171C246.149 291.752 246.028 291.296 246.026 290.804C246.022 289.892 246.368 289.189 247.062 288.696C247.756 288.203 248.703 287.956 249.903 287.954L252.315 287.95L252.315 287.842C252.312 287.062 252.105 286.474 251.696 286.079C251.286 285.672 250.74 285.468 250.056 285.47C249.468 285.47 248.958 285.621 248.527 285.922C248.108 286.211 247.846 286.637 247.74 287.201L246.192 287.203C246.25 286.555 246.464 286.009 246.834 285.564C247.216 285.12 247.689 284.783 248.252 284.554C248.815 284.313 249.415 284.193 250.051 284.192C251.299 284.19 252.236 284.524 252.862 285.195C253.501 285.854 253.822 286.736 253.827 287.84L253.848 293.33L252.498 293.332L252.401 291.73C252.151 292.234 251.781 292.667 251.29 293.028C250.812 293.376 250.164 293.551 249.348 293.553ZM249.578 292.274C250.154 292.273 250.645 292.123 251.052 291.822C251.471 291.521 251.787 291.131 252.001 290.651C252.215 290.17 252.322 289.666 252.32 289.138L252.319 289.12L250.033 289.124C249.145 289.125 248.516 289.282 248.145 289.594C247.786 289.895 247.608 290.273 247.61 290.729C247.611 291.197 247.781 291.575 248.118 291.862C248.467 292.138 248.954 292.275 249.578 292.274ZM257.856 293.323L254.438 284.401L256.022 284.398L258.732 291.864L261.404 284.39L262.952 284.388L259.602 293.321L257.856 293.323ZM266.682 293.526C265.938 293.527 265.32 293.402 264.827 293.151C264.334 292.9 263.967 292.564 263.725 292.144C263.483 291.725 263.362 291.269 263.36 290.777C263.356 289.865 263.702 289.163 264.396 288.669C265.09 288.176 266.037 287.929 267.237 287.927L269.649 287.923L269.649 287.815C269.646 287.035 269.439 286.448 269.03 286.052C268.62 285.645 268.073 285.442 267.389 285.443C266.801 285.444 266.292 285.595 265.861 285.895C265.442 286.184 265.18 286.61 265.074 287.174L263.526 287.177C263.584 286.529 263.798 285.982 264.168 285.538C264.55 285.093 265.023 284.756 265.586 284.528C266.149 284.287 266.749 284.166 267.385 284.165C268.633 284.163 269.57 284.497 270.196 285.169C270.835 285.828 271.156 286.709 271.161 287.813L271.182 293.303L269.832 293.305L269.735 291.703C269.485 292.208 269.115 292.64 268.624 293.001C268.146 293.35 267.498 293.525 266.682 293.526ZM266.911 292.248C267.487 292.247 267.979 292.096 268.386 291.795C268.805 291.495 269.121 291.104 269.335 290.624C269.549 290.144 269.656 289.639 269.654 289.111L269.653 289.093L267.367 289.097C266.479 289.098 265.85 289.255 265.479 289.568C265.12 289.868 264.942 290.247 264.944 290.703C264.945 291.171 265.115 291.548 265.452 291.836C265.801 292.111 266.287 292.249 266.911 292.248ZM273.826 282.391C273.526 282.391 273.274 282.296 273.069 282.104C272.876 281.9 272.779 281.649 272.778 281.349C272.777 281.061 272.872 280.82 273.063 280.628C273.267 280.436 273.518 280.339 273.818 280.339C274.106 280.339 274.353 280.434 274.557 280.626C274.762 280.817 274.865 281.057 274.866 281.345C274.867 281.645 274.766 281.897 274.563 282.102C274.36 282.294 274.114 282.39 273.826 282.391ZM273.112 293.3L273.078 284.372L274.59 284.37L274.624 293.298L273.112 293.3ZM279.727 293.506C278.983 293.507 278.365 293.382 277.872 293.131C277.379 292.879 277.012 292.544 276.77 292.124C276.528 291.705 276.407 291.249 276.405 290.757C276.401 289.845 276.747 289.142 277.441 288.649C278.135 288.156 279.082 287.909 280.282 287.907L282.694 287.903L282.693 287.795C282.69 287.015 282.484 286.428 282.075 286.032C281.665 285.625 281.118 285.422 280.434 285.423C279.846 285.424 279.337 285.574 278.906 285.875C278.487 286.164 278.225 286.59 278.119 287.154L276.571 287.157C276.629 286.509 276.842 285.962 277.213 285.518C277.595 285.073 278.068 284.736 278.631 284.508C279.194 284.267 279.794 284.146 280.43 284.145C281.678 284.143 282.615 284.477 283.241 285.148C283.88 285.807 284.201 286.689 284.205 287.793L284.226 293.283L282.876 293.285L282.78 291.683C282.53 292.188 282.16 292.62 281.669 292.981C281.191 293.33 280.543 293.505 279.727 293.506ZM279.956 292.227C280.532 292.227 281.024 292.076 281.431 291.775C281.85 291.475 282.166 291.084 282.38 290.604C282.594 290.123 282.7 289.619 282.698 289.091L282.698 289.073L280.412 289.077C279.524 289.078 278.895 289.235 278.524 289.548C278.165 289.848 277.987 290.227 277.988 290.683C277.99 291.151 278.16 291.528 278.497 291.816C278.846 292.091 279.332 292.228 279.956 292.227ZM285.995 293.28L285.945 280.32L287.457 280.318L287.507 293.278L285.995 293.28ZM294.256 293.483C293.524 293.485 292.869 293.336 292.292 293.036C291.727 292.737 291.293 292.318 290.991 291.779L290.853 293.273L289.485 293.275L289.435 280.315L290.947 280.313L290.968 285.821C291.255 285.388 291.661 284.997 292.188 284.649C292.727 284.3 293.41 284.125 294.238 284.124C295.126 284.122 295.901 284.325 296.562 284.732C297.224 285.139 297.736 285.696 298.099 286.404C298.473 287.111 298.663 287.915 298.666 288.815C298.669 289.715 298.486 290.519 298.117 291.228C297.76 291.924 297.246 292.477 296.575 292.886C295.917 293.283 295.144 293.482 294.256 293.483ZM294.089 292.17C294.689 292.169 295.216 292.03 295.671 291.753C296.126 291.465 296.485 291.068 296.747 290.564C297.009 290.059 297.138 289.471 297.136 288.799C297.133 288.127 296.999 287.539 296.733 287.036C296.467 286.532 296.106 286.143 295.649 285.867C295.192 285.58 294.663 285.437 294.063 285.438C293.463 285.439 292.936 285.584 292.481 285.872C292.026 286.149 291.667 286.539 291.405 287.044C291.143 287.548 291.013 288.136 291.016 288.808C291.018 289.48 291.153 290.068 291.419 290.572C291.685 291.075 292.046 291.471 292.503 291.758C292.96 292.033 293.489 292.171 294.089 292.17ZM300.288 293.258L300.238 280.298L301.75 280.296L301.8 293.256L300.288 293.258ZM307.793 293.463C306.941 293.464 306.184 293.273 305.523 292.89C304.861 292.495 304.337 291.95 303.95 291.255C303.576 290.559 303.386 289.737 303.383 288.789C303.379 287.853 303.562 287.037 303.931 286.341C304.301 285.632 304.815 285.085 305.473 284.7C306.144 284.303 306.917 284.104 307.793 284.103C308.657 284.101 309.402 284.298 310.027 284.693C310.665 285.076 311.153 285.585 311.491 286.221C311.83 286.856 312 287.54 312.003 288.272C312.003 288.404 311.998 288.536 311.986 288.668C311.987 288.8 311.987 288.95 311.988 289.118L304.878 289.129C304.917 289.813 305.075 290.383 305.353 290.838C305.642 291.282 305.998 291.617 306.419 291.845C306.851 292.072 307.308 292.185 307.788 292.185C308.412 292.184 308.933 292.039 309.352 291.75C309.771 291.462 310.076 291.071 310.266 290.579L311.76 290.577C311.523 291.405 311.063 292.096 310.382 292.649C309.712 293.19 308.849 293.461 307.793 293.463ZM307.762 285.381C307.042 285.382 306.401 285.605 305.838 286.05C305.288 286.483 304.972 287.119 304.892 287.959L310.508 287.95C310.469 287.147 310.19 286.517 309.672 286.062C309.155 285.607 308.518 285.38 307.762 285.381Z" fill="#0F2137"/>
<defs>
<filter id="filter0_d" x="0.0859375" y="0.120361" width="501.145" height="520.429" filterUnits="userSpaceOnUse" color-interpolation-filters="sRGB">
<feFlood flood-opacity="0" result="BackgroundImageFix"/>
<feColorMatrix in="SourceAlpha" type="matrix" values="0 0 0 0 0 0 0 0 0 0 0 0 0 0 0 0 0 0 127 0"/>
<feOffset dy="25"/>
<feGaussianBlur stdDeviation="50"/>
<feColorMatrix type="matrix" values="0 0 0 0 0.269792 0 0 0 0 0.346104 0 0 0 0 0.616667 0 0 0 0.08 0"/>
<feBlend mode="normal" in2="BackgroundImageFix" result="effect1_dropShadow"/>
<feBlend mode="normal" in="SourceGraphic" in2="effect1_dropShadow" result="shape"/>
</filter>
</defs>
</svg>
