<svg width="350" height="522" viewBox="0 0 502 522" fill="none" xmlns="http://www.w3.org/2000/svg">
<g filter="url(#filter0_d)">
<rect width="300" height="320" rx="10" transform="matrix(0.999999 -0.00153908 0.00381744 0.999993 100.697 76.0945)" fill="white"/>
</g>
<path d="M205.035 174.67C208.827 174.664 212.021 175.355 214.619 176.743C217.216 178.131 219.311 180 220.904 182.349C222.497 184.699 223.635 187.313 224.318 190.192C225.049 193.071 225.42 196.022 225.432 199.046C225.453 204.662 224.68 209.559 223.112 213.738C221.544 217.868 219.276 221.088 216.309 223.396C213.341 225.657 209.746 226.79 205.522 226.797C202.066 226.802 199.111 226.135 196.658 224.795C194.253 223.406 192.374 221.609 191.021 219.403C189.669 217.197 188.868 214.823 188.618 212.279L197.186 212.266C197.627 214.473 198.569 216.176 200.014 217.373C201.458 218.571 203.308 219.168 205.564 219.165C208.78 219.16 211.367 217.692 213.324 214.761C215.28 211.782 216.319 207.268 216.44 201.22C215.296 203.19 213.574 204.825 211.275 206.124C208.976 207.424 206.41 208.076 203.578 208.08C200.794 208.084 198.176 207.416 195.722 206.076C193.269 204.736 191.27 202.843 189.725 200.397C188.227 197.952 187.472 195.073 187.46 191.761C187.448 188.737 188.158 185.928 189.588 183.333C191.066 180.739 193.122 178.648 195.756 177.06C198.438 175.472 201.531 174.675 205.035 174.67ZM205.569 182.589C202.881 182.593 200.652 183.436 198.882 185.119C197.161 186.754 196.305 188.843 196.314 191.387C196.325 194.075 197.221 196.234 199.003 197.863C200.785 199.492 203.044 200.305 205.78 200.301C207.556 200.298 209.139 199.911 210.528 199.141C211.965 198.323 213.089 197.265 213.9 195.968C214.711 194.623 215.113 193.134 215.107 191.502C215.097 188.91 214.177 186.776 212.346 185.098C210.564 183.421 208.305 182.585 205.569 182.589ZM253.11 226.724C248.454 226.731 244.466 225.657 241.146 223.502C237.826 221.299 235.246 218.255 233.407 214.37C231.616 210.437 230.711 205.878 230.691 200.694C230.671 195.558 231.542 191.021 233.303 187.082C235.112 183.143 237.668 180.091 240.972 177.926C244.276 175.713 248.255 174.603 252.911 174.596C257.567 174.589 261.556 175.687 264.876 177.89C268.196 180.045 270.752 183.089 272.543 187.022C274.382 190.955 275.311 195.49 275.331 200.625C275.351 205.809 274.456 210.371 272.647 214.31C270.886 218.2 268.354 221.252 265.05 223.465C261.746 225.63 257.766 226.716 253.11 226.724ZM253.079 218.444C256.871 218.438 259.961 216.849 262.349 213.677C264.737 210.506 265.92 206.16 265.899 200.64C265.878 195.12 264.661 190.778 262.249 187.614C259.837 184.449 256.735 182.87 252.943 182.876C249.103 182.882 245.989 184.471 243.601 187.642C241.261 190.814 240.102 195.16 240.123 200.68C240.144 206.2 241.337 210.542 243.701 213.706C246.113 216.87 249.239 218.45 253.079 218.444ZM281.131 208.825L281.102 201.121L294.638 201.1L294.59 188.644L302.438 188.632L302.486 201.088L315.95 201.067L315.979 208.771L302.515 208.792L302.563 221.248L294.715 221.26L294.667 208.804L281.131 208.825Z" fill="#FA578E"/>
<path opacity="0.7" d="M178.886 267.974L178.838 255.374L182.708 255.368C184.928 255.365 186.562 255.926 187.61 257.052C188.671 258.179 189.205 259.726 189.212 261.694C189.219 263.626 188.697 265.157 187.646 266.286C186.606 267.404 184.976 267.965 182.756 267.968L178.886 267.974ZM180.393 266.712L182.715 266.708C183.939 266.706 184.91 266.507 185.629 266.11C186.359 265.7 186.879 265.124 187.188 264.379C187.497 263.623 187.65 262.728 187.646 261.696C187.642 260.64 187.483 259.735 187.168 258.979C186.853 258.224 186.329 257.642 185.595 257.236C184.873 256.829 183.901 256.626 182.677 256.628L180.355 256.632L180.393 266.712ZM193.8 268.167C193.056 268.168 192.437 268.043 191.945 267.792C191.452 267.541 191.084 267.205 190.843 266.786C190.601 266.366 190.479 265.91 190.477 265.418C190.474 264.506 190.819 263.804 191.513 263.31C192.208 262.817 193.155 262.57 194.355 262.568L196.767 262.564L196.766 262.456C196.763 261.676 196.557 261.089 196.147 260.693C195.738 260.286 195.191 260.083 194.507 260.084C193.919 260.085 193.41 260.236 192.979 260.536C192.56 260.825 192.298 261.251 192.192 261.815L190.644 261.818C190.701 261.17 190.915 260.623 191.285 260.179C191.668 259.734 192.14 259.398 192.704 259.169C193.267 258.928 193.866 258.807 194.502 258.806C195.75 258.804 196.688 259.139 197.314 259.81C197.953 260.469 198.274 261.35 198.278 262.454L198.299 267.944L196.949 267.946L196.853 266.344C196.603 266.849 196.233 267.281 195.742 267.642C195.263 267.991 194.616 268.166 193.8 268.167ZM194.029 266.889C194.605 266.888 195.097 266.737 195.503 266.436C195.922 266.136 196.239 265.745 196.453 265.265C196.667 264.785 196.773 264.28 196.771 263.752L196.771 263.734L194.485 263.738C193.597 263.739 192.968 263.896 192.597 264.209C192.238 264.509 192.059 264.888 192.061 265.344C192.063 265.812 192.232 266.189 192.57 266.477C192.919 266.752 193.405 266.89 194.029 266.889ZM200.944 257.032C200.644 257.032 200.391 256.937 200.187 256.745C199.994 256.541 199.897 256.29 199.896 255.99C199.895 255.702 199.99 255.461 200.181 255.269C200.384 255.077 200.636 254.98 200.936 254.98C201.224 254.98 201.47 255.075 201.675 255.267C201.88 255.459 201.983 255.698 201.984 255.986C201.985 256.286 201.884 256.539 201.681 256.743C201.477 256.935 201.232 257.032 200.944 257.032ZM200.229 267.941L200.195 259.013L201.707 259.011L201.741 267.939L200.229 267.941ZM203.874 267.935L203.825 254.976L205.337 254.973L205.386 267.933L203.874 267.935ZM208.351 271.889L210.547 267.061L210.025 267.062L206.448 259.003L208.086 259.001L211.065 265.944L214.17 258.992L215.736 258.989L209.935 271.886L208.351 271.889ZM228.908 258.969L228.942 267.897L227.574 267.899L227.478 266.297C227.192 266.862 226.78 267.306 226.241 267.631C225.702 267.956 225.091 268.119 224.407 268.12C223.351 268.121 222.504 267.805 221.865 267.17C221.239 266.523 220.923 265.533 220.918 264.201L220.898 258.981L222.41 258.979L222.429 264.037C222.436 265.897 223.208 266.826 224.744 266.823C225.512 266.822 226.147 266.545 226.649 265.992C227.162 265.428 227.417 264.629 227.413 263.597L227.396 258.971L228.908 258.969ZM230.946 271.854L230.897 258.966L232.265 258.964L232.414 260.44C232.701 260.007 233.107 259.616 233.634 259.268C234.172 258.919 234.856 258.744 235.684 258.743C236.572 258.741 237.347 258.944 238.008 259.351C238.67 259.758 239.182 260.315 239.544 261.023C239.919 261.73 240.108 262.534 240.112 263.434C240.115 264.334 239.932 265.138 239.563 265.847C239.206 266.543 238.692 267.096 238.021 267.505C237.363 267.902 236.589 268.101 235.701 268.102C234.969 268.104 234.315 267.955 233.738 267.655C233.173 267.356 232.739 266.937 232.437 266.397L232.458 271.851L230.946 271.854ZM235.534 266.789C236.134 266.788 236.662 266.649 237.117 266.372C237.572 266.084 237.93 265.687 238.192 265.183C238.454 264.678 238.584 264.09 238.582 263.418C238.579 262.746 238.445 262.158 238.179 261.655C237.913 261.151 237.551 260.762 237.094 260.486C236.637 260.199 236.109 260.056 235.509 260.057C234.909 260.058 234.381 260.203 233.926 260.491C233.471 260.768 233.113 261.158 232.851 261.663C232.589 262.167 232.459 262.755 232.462 263.427C232.464 264.099 232.598 264.687 232.864 265.191C233.13 265.694 233.492 266.09 233.949 266.377C234.406 266.652 234.934 266.79 235.534 266.789ZM245.784 268.087C244.896 268.088 244.115 267.886 243.442 267.479C242.78 267.072 242.262 266.514 241.887 265.807C241.525 265.1 241.342 264.296 241.338 263.396C241.335 262.496 241.518 261.698 241.887 261.001C242.256 260.292 242.77 259.74 243.429 259.343C244.087 258.934 244.866 258.728 245.766 258.727C246.498 258.726 247.147 258.875 247.712 259.174C248.277 259.473 248.717 259.892 249.031 260.432L249.01 254.906L250.522 254.904L250.571 267.864L249.203 267.866L249.054 266.39C248.767 266.822 248.355 267.213 247.816 267.562C247.278 267.911 246.6 268.086 245.784 268.087ZM245.941 266.773C246.541 266.772 247.069 266.633 247.524 266.356C247.991 266.068 248.349 265.671 248.599 265.167C248.861 264.662 248.991 264.074 248.988 263.402C248.986 262.73 248.852 262.142 248.586 261.639C248.332 261.135 247.97 260.746 247.501 260.47C247.044 260.183 246.515 260.04 245.915 260.041C245.327 260.042 244.8 260.186 244.333 260.475C243.878 260.752 243.52 261.142 243.258 261.647C243.008 262.151 242.884 262.739 242.886 263.411C242.889 264.083 243.017 264.671 243.271 265.175C243.537 265.678 243.899 266.074 244.356 266.361C244.825 266.636 245.353 266.774 245.941 266.773ZM255.507 268.072C254.763 268.073 254.144 267.948 253.651 267.697C253.159 267.446 252.791 267.11 252.55 266.691C252.308 266.271 252.186 265.815 252.184 265.323C252.181 264.411 252.526 263.709 253.22 263.216C253.915 262.722 254.862 262.475 256.062 262.473L258.474 262.469L258.473 262.361C258.47 261.581 258.264 260.994 257.854 260.598C257.445 260.191 256.898 259.988 256.214 259.989C255.626 259.99 255.117 260.141 254.686 260.441C254.267 260.73 254.005 261.156 253.899 261.72L252.351 261.723C252.408 261.075 252.622 260.528 252.992 260.084C253.375 259.639 253.847 259.303 254.411 259.074C254.974 258.833 255.573 258.712 256.209 258.711C257.457 258.709 258.394 259.044 259.021 259.715C259.66 260.374 259.981 261.255 259.985 262.359L260.006 267.849L258.656 267.851L258.56 266.249C258.31 266.754 257.94 267.186 257.449 267.547C256.97 267.896 256.323 268.071 255.507 268.072ZM255.736 266.794C256.312 266.793 256.803 266.642 257.21 266.341C257.629 266.041 257.946 265.65 258.16 265.17C258.374 264.69 258.48 264.185 258.478 263.657L258.478 263.639L256.192 263.643C255.304 263.644 254.675 263.801 254.304 264.114C253.945 264.414 253.766 264.793 253.768 265.249C253.77 265.717 253.939 266.094 254.276 266.382C254.626 266.657 255.112 266.795 255.736 266.794ZM265.056 267.841C264.24 267.843 263.598 267.646 263.128 267.25C262.659 266.855 262.422 266.141 262.418 265.109L262.399 260.195L260.851 260.198L260.846 258.92L262.394 258.917L262.584 256.775L263.898 256.773L263.906 258.915L266.534 258.911L266.539 260.189L263.911 260.193L263.93 265.107C263.932 265.671 264.047 266.055 264.276 266.258C264.505 266.45 264.907 266.546 265.483 266.545L266.419 266.543L266.424 267.839L265.056 267.841ZM271.758 268.047C270.906 268.048 270.149 267.857 269.488 267.474C268.826 267.079 268.302 266.534 267.915 265.839C267.541 265.143 267.352 264.322 267.348 263.374C267.345 262.438 267.527 261.621 267.897 260.925C268.266 260.216 268.78 259.67 269.438 259.285C270.109 258.888 270.882 258.688 271.758 258.687C272.622 258.686 273.367 258.883 273.992 259.278C274.63 259.661 275.118 260.17 275.456 260.805C275.795 261.441 275.965 262.125 275.968 262.856C275.969 262.988 275.963 263.121 275.952 263.253C275.952 263.385 275.953 263.535 275.953 263.703L268.843 263.713C268.882 264.397 269.04 264.967 269.318 265.423C269.608 265.866 269.963 266.202 270.384 266.429C270.817 266.656 271.273 266.77 271.753 266.769C272.377 266.768 272.899 266.623 273.317 266.335C273.736 266.046 274.041 265.655 274.231 265.163L275.725 265.161C275.488 265.989 275.029 266.68 274.347 267.233C273.677 267.774 272.814 268.045 271.758 268.047ZM271.727 259.965C271.007 259.966 270.366 260.189 269.804 260.634C269.253 261.067 268.938 261.703 268.857 262.543L274.473 262.535C274.434 261.731 274.155 261.101 273.638 260.646C273.12 260.191 272.483 259.964 271.727 259.965ZM281.542 268.032C280.654 268.033 279.873 267.83 279.2 267.424C278.538 267.017 278.02 266.459 277.645 265.752C277.283 265.044 277.099 264.241 277.096 263.341C277.093 262.441 277.276 261.642 277.645 260.946C278.014 260.237 278.528 259.685 279.187 259.288C279.845 258.879 280.624 258.673 281.524 258.672C282.256 258.671 282.905 258.82 283.47 259.119C284.035 259.418 284.475 259.837 284.789 260.377L284.768 254.851L286.28 254.849L286.329 267.809L284.961 267.811L284.812 266.335C284.525 266.767 284.113 267.158 283.574 267.507C283.035 267.856 282.358 268.031 281.542 268.032ZM281.699 266.718C282.299 266.717 282.826 266.578 283.281 266.301C283.748 266.013 284.107 265.616 284.357 265.112C284.619 264.607 284.749 264.019 284.746 263.347C284.744 262.675 284.609 262.087 284.343 261.584C284.089 261.08 283.728 260.691 283.259 260.415C282.802 260.128 282.273 259.985 281.673 259.986C281.085 259.987 280.558 260.131 280.091 260.42C279.636 260.697 279.277 261.087 279.015 261.592C278.765 262.096 278.642 262.684 278.644 263.356C278.647 264.028 278.775 264.616 279.029 265.12C279.295 265.623 279.656 266.019 280.113 266.306C280.582 266.581 281.111 266.719 281.699 266.718ZM297.328 268.008C296.596 268.009 295.942 267.86 295.365 267.561C294.8 267.262 294.366 266.842 294.064 266.303L293.926 267.797L292.558 267.799L292.508 254.839L294.02 254.837L294.041 260.345C294.327 259.912 294.734 259.522 295.261 259.173C295.799 258.824 296.483 258.649 297.311 258.648C298.199 258.646 298.973 258.849 299.635 259.256C300.297 259.663 300.809 260.22 301.171 260.928C301.546 261.635 301.735 262.439 301.739 263.339C301.742 264.239 301.559 265.043 301.19 265.752C300.832 266.448 300.319 267.001 299.648 267.41C298.99 267.807 298.216 268.006 297.328 268.008ZM297.161 266.694C297.761 266.693 298.289 266.554 298.744 266.277C299.199 265.989 299.557 265.592 299.819 265.088C300.081 264.583 300.211 263.995 300.209 263.323C300.206 262.651 300.072 262.063 299.806 261.56C299.54 261.056 299.178 260.667 298.721 260.391C298.264 260.104 297.736 259.961 297.136 259.962C296.536 259.963 296.008 260.108 295.553 260.396C295.098 260.673 294.74 261.064 294.478 261.568C294.216 262.072 294.086 262.661 294.089 263.333C294.091 264.005 294.225 264.592 294.491 265.096C294.757 265.6 295.119 265.995 295.576 266.282C296.033 266.558 296.561 266.695 297.161 266.694ZM303.36 267.782L303.311 254.822L304.823 254.82L304.872 267.78L303.36 267.782ZM310.919 267.987C310.079 267.988 309.323 267.797 308.649 267.414C307.976 267.031 307.44 266.492 307.041 265.797C306.654 265.089 306.459 264.262 306.455 263.314C306.452 262.366 306.647 261.543 307.04 260.847C307.433 260.138 307.965 259.591 308.636 259.206C309.318 258.821 310.08 258.628 310.92 258.627C311.76 258.625 312.516 258.816 313.19 259.199C313.863 259.582 314.393 260.127 314.78 260.835C315.179 261.53 315.38 262.352 315.383 263.3C315.387 264.248 315.192 265.076 314.799 265.785C314.406 266.481 313.868 267.022 313.185 267.407C312.515 267.792 311.759 267.985 310.919 267.987ZM310.914 266.691C311.43 266.69 311.91 266.563 312.353 266.31C312.796 266.058 313.155 265.679 313.429 265.175C313.703 264.67 313.838 264.046 313.835 263.302C313.833 262.558 313.692 261.934 313.414 261.431C313.148 260.927 312.793 260.55 312.348 260.299C311.903 260.047 311.429 259.922 310.925 259.923C310.409 259.923 309.929 260.05 309.486 260.303C309.043 260.556 308.684 260.934 308.41 261.439C308.136 261.943 308.001 262.567 308.003 263.311C308.006 264.055 308.147 264.679 308.425 265.183C308.703 265.686 309.058 266.064 309.491 266.315C309.936 266.566 310.41 266.691 310.914 266.691ZM320.133 264.949C319.629 264.949 319.167 264.884 318.747 264.753L317.85 265.6C317.982 265.696 318.145 265.78 318.337 265.851C318.541 265.911 318.829 265.971 319.202 266.03C319.574 266.077 320.096 266.131 320.768 266.19C321.968 266.272 322.828 266.546 323.345 267.014C323.863 267.481 324.123 268.092 324.126 268.848C324.128 269.364 323.986 269.857 323.7 270.325C323.426 270.793 322.995 271.178 322.408 271.479C321.833 271.78 321.09 271.931 320.178 271.932C319.374 271.934 318.66 271.827 318.035 271.612C317.41 271.409 316.923 271.091 316.573 270.66C316.224 270.241 316.048 269.707 316.045 269.059C316.044 268.723 316.132 268.357 316.311 267.96C316.489 267.576 316.824 267.21 317.315 266.861C317.05 266.753 316.822 266.64 316.629 266.52C316.449 266.388 316.28 266.244 316.124 266.089L316.122 265.675L317.646 264.16C316.936 263.561 316.579 262.77 316.575 261.786C316.573 261.198 316.709 260.664 316.983 260.183C317.257 259.703 317.658 259.324 318.185 259.048C318.712 258.759 319.353 258.614 320.109 258.613C320.625 258.612 321.093 258.683 321.514 258.826L324.808 258.821L324.812 259.955L323.139 260.03C323.489 260.533 323.665 261.115 323.667 261.775C323.67 262.363 323.528 262.897 323.241 263.378C322.967 263.858 322.567 264.243 322.04 264.532C321.525 264.808 320.889 264.947 320.133 264.949ZM320.129 263.707C320.765 263.706 321.268 263.543 321.639 263.218C322.022 262.882 322.212 262.401 322.209 261.777C322.207 261.165 322.013 260.698 321.628 260.374C321.255 260.039 320.75 259.872 320.114 259.873C319.466 259.874 318.951 260.042 318.568 260.379C318.197 260.704 318.013 261.172 318.015 261.784C318.018 262.408 318.206 262.887 318.579 263.223C318.964 263.546 319.481 263.708 320.129 263.707ZM317.521 268.913C317.523 269.513 317.776 269.956 318.282 270.243C318.787 270.543 319.417 270.692 320.173 270.69C320.917 270.689 321.511 270.526 321.953 270.202C322.408 269.877 322.635 269.445 322.633 268.905C322.631 268.521 322.474 268.185 322.161 267.897C321.848 267.622 321.271 267.461 320.431 267.414C319.771 267.367 319.2 267.308 318.72 267.237C318.229 267.501 317.906 267.784 317.751 268.084C317.597 268.396 317.52 268.673 317.521 268.913ZM198.772 297.903L198.722 285.015L200.09 285.013L200.24 286.489C200.526 286.057 200.933 285.666 201.46 285.317C201.998 284.968 202.682 284.793 203.51 284.792C204.398 284.791 205.172 284.993 205.834 285.4C206.496 285.807 207.008 286.365 207.37 287.072C207.745 287.779 207.934 288.583 207.938 289.483C207.941 290.383 207.758 291.187 207.389 291.896C207.031 292.593 206.518 293.145 205.847 293.554C205.189 293.951 204.415 294.151 203.527 294.152C202.795 294.153 202.141 294.004 201.564 293.705C200.998 293.406 200.565 292.987 200.263 292.447L200.284 297.901L198.772 297.903ZM203.36 292.838C203.96 292.837 204.488 292.698 204.943 292.422C205.398 292.133 205.756 291.737 206.018 291.232C206.28 290.728 206.41 290.14 206.407 289.468C206.405 288.796 206.271 288.208 206.005 287.704C205.739 287.201 205.377 286.811 204.92 286.536C204.463 286.249 203.935 286.105 203.335 286.106C202.735 286.107 202.207 286.252 201.752 286.541C201.297 286.817 200.939 287.208 200.677 287.712C200.415 288.217 200.285 288.805 200.287 289.477C200.29 290.149 200.424 290.737 200.69 291.24C200.956 291.744 201.318 292.139 201.775 292.427C202.232 292.702 202.76 292.839 203.36 292.838ZM213.628 294.136C212.788 294.138 212.031 293.947 211.358 293.564C210.684 293.181 210.148 292.642 209.75 291.946C209.363 291.239 209.168 290.411 209.164 289.463C209.161 288.515 209.355 287.693 209.749 286.996C210.142 286.288 210.674 285.741 211.345 285.356C212.027 284.971 212.788 284.778 213.628 284.776C214.468 284.775 215.225 284.966 215.899 285.349C216.572 285.732 217.102 286.277 217.489 286.984C217.887 287.68 218.089 288.502 218.092 289.45C218.096 290.398 217.901 291.226 217.508 291.934C217.114 292.631 216.576 293.172 215.894 293.557C215.223 293.942 214.468 294.135 213.628 294.136ZM213.623 292.84C214.139 292.84 214.619 292.713 215.062 292.46C215.505 292.208 215.863 291.829 216.137 291.325C216.411 290.82 216.547 290.196 216.544 289.452C216.541 288.708 216.401 288.084 216.123 287.581C215.857 287.077 215.502 286.7 215.057 286.448C214.612 286.197 214.137 286.072 213.633 286.072C213.117 286.073 212.638 286.2 212.195 286.453C211.752 286.705 211.393 287.084 211.119 287.588C210.845 288.093 210.709 288.717 210.712 289.461C210.715 290.205 210.855 290.829 211.133 291.332C211.411 291.836 211.767 292.213 212.2 292.465C212.645 292.716 213.119 292.841 213.623 292.84ZM223.132 294.122C222.064 294.123 221.175 293.855 220.465 293.316C219.755 292.777 219.338 292.046 219.215 291.122L220.763 291.119C220.861 291.587 221.108 291.995 221.506 292.342C221.915 292.678 222.462 292.845 223.146 292.844C223.782 292.843 224.249 292.71 224.548 292.446C224.847 292.169 224.996 291.845 224.994 291.473C224.992 290.933 224.793 290.573 224.396 290.394C224.011 290.214 223.465 290.053 222.756 289.91C222.276 289.815 221.795 289.678 221.315 289.499C220.834 289.319 220.431 289.068 220.106 288.744C219.781 288.409 219.617 287.971 219.615 287.431C219.612 286.651 219.897 286.015 220.472 285.522C221.058 285.017 221.849 284.764 222.845 284.762C223.793 284.761 224.568 285 225.169 285.479C225.783 285.946 226.14 286.617 226.239 287.493L224.745 287.495C224.683 287.039 224.484 286.686 224.147 286.434C223.822 286.171 223.384 286.039 222.832 286.04C222.292 286.041 221.872 286.156 221.573 286.384C221.286 286.613 221.143 286.913 221.144 287.285C221.146 287.645 221.333 287.927 221.706 288.13C222.09 288.333 222.607 288.507 223.256 288.65C223.808 288.769 224.331 288.918 224.823 289.097C225.328 289.264 225.737 289.522 226.05 289.869C226.375 290.205 226.539 290.697 226.542 291.345C226.557 292.149 226.253 292.815 225.631 293.344C225.021 293.861 224.188 294.12 223.132 294.122ZM231.335 293.893C230.519 293.894 229.877 293.697 229.407 293.302C228.937 292.907 228.701 292.193 228.697 291.161L228.678 286.247L227.13 286.25L227.125 284.972L228.673 284.969L228.863 282.827L230.177 282.825L230.185 284.967L232.813 284.963L232.818 286.241L230.19 286.245L230.209 291.159C230.211 291.723 230.326 292.107 230.555 292.31C230.784 292.502 231.186 292.597 231.762 292.596L232.698 292.595L232.703 293.891L231.335 293.893ZM238.532 293.882L238.498 284.954L239.866 284.952L239.979 286.248C240.265 285.767 240.647 285.395 241.126 285.13C241.605 284.865 242.145 284.733 242.745 284.732C243.453 284.731 244.06 284.874 244.565 285.161C245.082 285.448 245.479 285.885 245.758 286.473C246.068 285.932 246.492 285.506 247.031 285.193C247.582 284.88 248.175 284.723 248.811 284.722C249.879 284.721 250.732 285.043 251.371 285.69C252.009 286.325 252.331 287.309 252.336 288.641L252.356 293.861L250.862 293.863L250.843 288.805C250.839 287.881 250.65 287.185 250.277 286.718C249.903 286.251 249.368 286.017 248.672 286.018C247.952 286.02 247.353 286.303 246.875 286.867C246.409 287.42 246.178 288.212 246.182 289.244L246.2 293.87L244.688 293.873L244.669 288.815C244.665 287.891 244.476 287.195 244.103 286.728C243.729 286.26 243.194 286.027 242.498 286.028C241.79 286.029 241.197 286.312 240.719 286.877C240.253 287.429 240.022 288.222 240.026 289.254L240.044 293.88L238.532 293.882ZM257.104 294.069C256.36 294.071 255.742 293.946 255.249 293.694C254.756 293.443 254.389 293.108 254.147 292.688C253.905 292.268 253.784 291.813 253.782 291.321C253.778 290.409 254.124 289.706 254.818 289.213C255.512 288.72 256.459 288.472 257.659 288.471L260.071 288.467L260.07 288.359C260.067 287.579 259.861 286.991 259.452 286.596C259.042 286.189 258.495 285.985 257.811 285.986C257.223 285.987 256.714 286.138 256.283 286.439C255.864 286.727 255.602 287.154 255.496 287.718L253.948 287.72C254.006 287.072 254.219 286.526 254.59 286.081C254.972 285.637 255.445 285.3 256.008 285.071C256.571 284.83 257.171 284.709 257.807 284.708C259.054 284.706 259.992 285.041 260.618 285.712C261.257 286.371 261.578 287.253 261.582 288.357L261.603 293.847L260.253 293.849L260.157 292.247C259.907 292.751 259.537 293.184 259.046 293.544C258.568 293.893 257.92 294.068 257.104 294.069ZM257.333 292.791C257.909 292.79 258.401 292.639 258.808 292.339C259.226 292.038 259.543 291.648 259.757 291.167C259.971 290.687 260.077 290.183 260.075 289.655L260.075 289.637L257.789 289.64C256.901 289.642 256.272 289.799 255.901 290.111C255.542 290.412 255.364 290.79 255.365 291.246C255.367 291.714 255.537 292.092 255.874 292.379C256.223 292.655 256.709 292.792 257.333 292.791ZM264.248 282.935C263.948 282.935 263.696 282.839 263.491 282.648C263.298 282.444 263.201 282.192 263.2 281.892C263.199 281.604 263.294 281.364 263.485 281.172C263.689 280.979 263.94 280.883 264.24 280.883C264.528 280.882 264.775 280.978 264.979 281.169C265.184 281.361 265.287 281.601 265.288 281.889C265.289 282.189 265.188 282.441 264.985 282.645C264.782 282.838 264.536 282.934 264.248 282.935ZM263.534 293.844L263.5 284.916L265.012 284.913L265.046 293.841L263.534 293.844ZM267.178 293.838L267.144 284.91L268.512 284.908L268.608 286.51C268.894 285.945 269.307 285.501 269.845 285.176C270.384 284.851 270.995 284.688 271.679 284.687C272.735 284.685 273.577 285.008 274.203 285.655C274.842 286.29 275.163 287.274 275.168 288.606L275.188 293.826L273.676 293.828L273.657 288.77C273.65 286.91 272.878 285.981 271.342 285.984C270.574 285.985 269.933 286.268 269.42 286.833C268.918 287.385 268.669 288.178 268.673 289.21L268.69 293.836L267.178 293.838ZM280.507 293.817C279.691 293.819 279.048 293.622 278.579 293.226C278.109 292.831 277.873 292.118 277.869 291.086L277.85 286.172L276.302 286.174L276.297 284.896L277.845 284.894L278.035 282.751L279.349 282.749L279.357 284.891L281.985 284.887L281.99 286.165L279.362 286.169L279.381 291.083C279.383 291.647 279.498 292.031 279.727 292.235C279.956 292.426 280.358 292.522 280.934 292.521L281.87 292.519L281.875 293.815L280.507 293.817ZM286.411 294.024C285.667 294.026 285.048 293.9 284.555 293.649C284.062 293.398 283.695 293.063 283.454 292.643C283.212 292.223 283.09 291.767 283.088 291.275C283.085 290.364 283.43 289.661 284.124 289.168C284.818 288.675 285.765 288.427 286.965 288.426L289.377 288.422L289.377 288.314C289.374 287.534 289.168 286.946 288.758 286.551C288.349 286.143 287.802 285.94 287.118 285.941C286.53 285.942 286.021 286.093 285.59 286.394C285.171 286.682 284.908 287.109 284.803 287.673L283.255 287.675C283.312 287.027 283.526 286.481 283.896 286.036C284.279 285.592 284.751 285.255 285.314 285.026C285.878 284.785 286.477 284.664 287.113 284.663C288.361 284.661 289.298 284.996 289.925 285.667C290.563 286.326 290.885 287.208 290.889 288.311L290.91 293.801L289.56 293.804L289.464 292.202C289.214 292.706 288.843 293.139 288.353 293.499C287.874 293.848 287.227 294.023 286.411 294.024ZM286.64 292.746C287.216 292.745 287.707 292.594 288.114 292.294C288.533 291.993 288.85 291.603 289.064 291.122C289.278 290.642 289.384 290.138 289.382 289.61L289.382 289.592L287.096 289.595C286.208 289.597 285.579 289.754 285.208 290.066C284.849 290.367 284.67 290.745 284.672 291.201C284.674 291.669 284.843 292.047 285.18 292.334C285.529 292.61 286.016 292.747 286.64 292.746ZM293.555 282.889C293.255 282.89 293.002 282.794 292.798 282.603C292.605 282.399 292.508 282.147 292.507 281.847C292.506 281.559 292.601 281.319 292.792 281.127C292.995 280.934 293.247 280.838 293.547 280.837C293.835 280.837 294.081 280.933 294.286 281.124C294.491 281.316 294.594 281.556 294.595 281.844C294.596 282.144 294.495 282.396 294.292 282.6C294.088 282.793 293.843 282.889 293.555 282.889ZM292.84 293.798L292.806 284.871L294.318 284.868L294.352 293.796L292.84 293.798ZM296.485 293.793L296.451 284.865L297.819 284.863L297.915 286.465C298.201 285.9 298.613 285.456 299.152 285.131C299.691 284.806 300.302 284.643 300.986 284.642C302.042 284.64 302.883 284.963 303.51 285.61C304.148 286.245 304.47 287.229 304.475 288.561L304.495 293.781L302.983 293.783L302.964 288.725C302.957 286.865 302.185 285.936 300.649 285.938C299.881 285.94 299.24 286.223 298.726 286.787C298.224 287.34 297.975 288.133 297.979 289.165L297.997 293.791L296.485 293.793Z" fill="#0F2137"/>
<defs>
<filter id="filter0_d" x="0.735352" y="0.648193" width="501.145" height="520.429" filterUnits="userSpaceOnUse" color-interpolation-filters="sRGB">
<feFlood flood-opacity="0" result="BackgroundImageFix"/>
<feColorMatrix in="SourceAlpha" type="matrix" values="0 0 0 0 0 0 0 0 0 0 0 0 0 0 0 0 0 0 127 0"/>
<feOffset dy="25"/>
<feGaussianBlur stdDeviation="50"/>
<feColorMatrix type="matrix" values="0 0 0 0 0.269792 0 0 0 0 0.346104 0 0 0 0 0.616667 0 0 0 0.08 0"/>
<feBlend mode="normal" in2="BackgroundImageFix" result="effect1_dropShadow"/>
<feBlend mode="normal" in="SourceGraphic" in2="effect1_dropShadow" result="shape"/>
</filter>
</defs>
</svg>
