<svg width="350" height="521" viewBox="0 0 502 521" fill="none" xmlns="http://www.w3.org/2000/svg">
<g filter="url(#filter0_d)">
<rect width="300" height="320" rx="10" transform="matrix(0.999999 -0.00153908 0.00381744 0.999993 100.44 75.564)" fill="white"/>
</g>
<path d="M185.177 226.225C181.481 226.231 178.262 225.612 175.522 224.368C172.781 223.076 170.638 221.28 169.093 218.978C167.596 216.676 166.842 213.99 166.83 210.918C166.818 207.654 167.718 204.7 169.532 202.057C171.346 199.415 174.05 197.299 177.644 195.709C176.198 194.031 175.16 192.449 174.53 190.962C173.9 189.475 173.582 187.891 173.576 186.211C173.567 183.907 174.135 181.866 175.281 180.089C176.426 178.263 178.052 176.82 180.16 175.761C182.316 174.702 184.882 174.17 187.858 174.165C190.882 174.161 193.452 174.709 195.568 175.809C197.684 176.91 199.274 178.396 200.337 180.266C201.448 182.136 201.96 184.224 201.873 186.528L193.089 186.541C193.082 184.765 192.549 183.446 191.49 182.584C190.479 181.673 189.253 181.219 187.813 181.221C186.181 181.224 184.863 181.682 183.858 182.595C182.902 183.509 182.426 184.686 182.432 186.126C182.436 187.326 182.825 188.549 183.598 189.796C184.37 191.043 185.504 192.481 186.998 194.111L201.163 208.057C202.165 206.423 203.214 204.526 204.31 202.364L205.882 199.194L215.314 199.179L212.812 204.079C210.907 207.97 209 211.261 207.09 213.952L218.726 225.382L207.71 225.399L202.072 219.791C199.633 222.051 197.023 223.687 194.243 224.699C191.511 225.712 188.489 226.22 185.177 226.225ZM175.756 210.328C175.765 212.68 176.637 214.671 178.371 216.3C180.153 217.881 182.508 218.669 185.436 218.665C189.612 218.659 193.23 217.165 196.291 214.184L182.92 201.029C180.477 202.089 178.658 203.411 177.464 204.997C176.318 206.583 175.748 208.36 175.756 210.328ZM255.31 226.189C251.998 226.195 248.996 225.623 246.304 224.475C243.611 223.279 241.444 221.459 239.803 219.013C238.161 216.568 237.286 213.497 237.176 209.801L246.248 209.787C246.305 212.235 247.105 214.298 248.647 215.976C250.238 217.605 252.449 218.418 255.281 218.413C257.969 218.409 260.03 217.662 261.464 216.172C262.898 214.682 263.611 212.809 263.603 210.553C263.593 207.913 262.625 205.922 260.7 204.581C258.823 203.192 256.396 202.5 253.42 202.504L249.676 202.51L249.647 194.95L253.463 194.944C255.911 194.941 257.949 194.361 259.576 193.207C261.204 192.052 262.014 190.347 262.005 188.091C261.998 186.219 261.368 184.732 260.116 183.63C258.911 182.48 257.229 181.907 255.069 181.91C252.717 181.913 250.872 182.612 249.533 184.006C248.243 185.4 247.529 187.105 247.393 189.122L238.393 189.136C238.567 184.479 240.161 180.805 243.175 178.112C246.236 175.419 250.191 174.069 255.039 174.062C258.495 174.057 261.402 174.676 263.758 175.92C266.163 177.117 267.969 178.722 269.177 180.736C270.433 182.75 271.065 184.981 271.074 187.429C271.085 190.261 270.302 192.662 268.726 194.633C267.197 196.555 265.282 197.854 262.981 198.53C265.815 199.101 268.124 200.49 269.909 202.695C271.693 204.852 272.591 207.587 272.604 210.899C272.615 213.683 271.952 216.228 270.617 218.534C269.282 220.84 267.321 222.691 264.734 224.087C262.196 225.483 259.054 226.184 255.31 226.189ZM280.21 225.287L280.017 174.887L290.961 174.871L307.139 206.814L322.857 174.822L333.801 174.805L333.994 225.204L324.778 225.218L324.645 190.443L310.71 218.04L303.438 218.051L289.293 190.497L289.426 225.273L280.21 225.287Z" fill="#E682FF"/>
<path opacity="0.7" d="M168.662 267.675C167.522 267.676 166.626 267.36 165.976 266.725C165.326 266.09 164.998 265.208 164.994 264.08L166.524 264.078C166.526 264.714 166.684 265.248 166.998 265.679C167.312 266.111 167.858 266.326 168.638 266.325C169.394 266.324 169.916 266.113 170.202 265.692C170.5 265.272 170.648 264.75 170.646 264.126L170.611 254.856L172.123 254.853L172.158 264.123C172.162 265.239 171.854 266.11 171.232 266.735C170.622 267.36 169.766 267.673 168.662 267.675ZM178.314 267.66C177.474 267.661 176.717 267.47 176.044 267.087C175.37 266.704 174.834 266.165 174.436 265.47C174.049 264.762 173.854 263.935 173.85 262.987C173.847 262.039 174.041 261.216 174.435 260.52C174.828 259.811 175.36 259.264 176.03 258.879C176.713 258.494 177.474 258.301 178.314 258.3C179.154 258.299 179.911 258.489 180.584 258.872C181.258 259.255 181.788 259.8 182.175 260.508C182.573 261.203 182.775 262.025 182.778 262.973C182.782 263.921 182.587 264.749 182.194 265.458C181.8 266.154 181.262 266.695 180.58 267.08C179.909 267.465 179.154 267.659 178.314 267.66ZM178.309 266.364C178.825 266.363 179.305 266.236 179.748 265.984C180.191 265.731 180.549 265.352 180.823 264.848C181.097 264.344 181.233 263.719 181.23 262.975C181.227 262.231 181.087 261.608 180.809 261.104C180.543 260.6 180.188 260.223 179.743 259.972C179.298 259.72 178.823 259.595 178.319 259.596C177.803 259.597 177.324 259.723 176.881 259.976C176.438 260.229 176.079 260.607 175.805 261.112C175.531 261.616 175.395 262.24 175.398 262.984C175.401 263.728 175.541 264.352 175.819 264.856C176.097 265.359 176.453 265.737 176.886 265.988C177.331 266.239 177.805 266.365 178.309 266.364ZM189.168 267.643C188.436 267.644 187.782 267.495 187.205 267.196C186.639 266.897 186.206 266.478 185.904 265.938L185.766 267.432L184.398 267.434L184.348 254.475L185.86 254.472L185.881 259.98C186.167 259.548 186.574 259.157 187.101 258.808C187.639 258.459 188.323 258.284 189.151 258.283C190.039 258.282 190.813 258.485 191.475 258.892C192.136 259.299 192.649 259.856 193.011 260.563C193.386 261.271 193.575 262.074 193.579 262.974C193.582 263.874 193.399 264.679 193.03 265.387C192.672 266.084 192.158 266.637 191.488 267.046C190.83 267.443 190.056 267.642 189.168 267.643ZM189.001 266.329C189.601 266.328 190.129 266.19 190.584 265.913C191.039 265.624 191.397 265.228 191.659 264.723C191.921 264.219 192.051 263.631 192.048 262.959C192.046 262.287 191.912 261.699 191.646 261.195C191.38 260.692 191.018 260.302 190.561 260.027C190.104 259.74 189.576 259.596 188.976 259.597C188.376 259.598 187.848 259.743 187.393 260.032C186.938 260.309 186.58 260.699 186.318 261.204C186.056 261.708 185.926 262.296 185.928 262.968C185.931 263.64 186.065 264.228 186.331 264.731C186.597 265.235 186.959 265.631 187.416 265.918C187.873 266.193 188.401 266.33 189.001 266.329ZM199.479 271.371L199.43 258.483L200.798 258.481L200.947 259.957C201.234 259.525 201.64 259.134 202.167 258.785C202.706 258.436 203.389 258.261 204.217 258.26C205.105 258.259 205.88 258.461 206.541 258.868C207.203 259.275 207.715 259.833 208.078 260.54C208.452 261.247 208.641 262.051 208.645 262.951C208.648 263.851 208.465 264.655 208.096 265.364C207.739 266.061 207.225 266.613 206.554 267.022C205.896 267.419 205.123 267.619 204.235 267.62C203.503 267.621 202.848 267.472 202.271 267.173C201.706 266.874 201.272 266.454 200.97 265.915L200.991 271.369L199.479 271.371ZM204.068 266.306C204.668 266.305 205.195 266.166 205.65 265.89C206.105 265.601 206.464 265.204 206.726 264.7C206.988 264.196 207.117 263.607 207.115 262.935C207.112 262.263 206.978 261.676 206.712 261.172C206.446 260.669 206.085 260.279 205.628 260.004C205.171 259.716 204.642 259.573 204.042 259.574C203.442 259.575 202.915 259.72 202.46 260.009C202.005 260.285 201.646 260.676 201.384 261.18C201.122 261.685 200.992 262.273 200.995 262.945C200.997 263.617 201.132 264.205 201.398 264.708C201.664 265.212 202.025 265.607 202.482 265.895C202.939 266.17 203.468 266.307 204.068 266.306ZM214.335 267.604C213.495 267.606 212.739 267.415 212.065 267.032C211.392 266.649 210.856 266.11 210.457 265.414C210.07 264.707 209.875 263.879 209.872 262.931C209.868 261.983 210.063 261.161 210.456 260.464C210.849 259.756 211.381 259.209 212.052 258.824C212.734 258.439 213.496 258.246 214.336 258.244C215.176 258.243 215.932 258.434 216.606 258.817C217.279 259.2 217.809 259.745 218.196 260.452C218.595 261.148 218.796 261.97 218.8 262.918C218.803 263.866 218.608 264.694 218.215 265.402C217.822 266.099 217.284 266.64 216.601 267.025C215.931 267.41 215.175 267.603 214.335 267.604ZM214.33 266.308C214.846 266.308 215.326 266.181 215.769 265.928C216.212 265.675 216.571 265.297 216.845 264.793C217.119 264.288 217.254 263.664 217.252 262.92C217.249 262.176 217.108 261.552 216.83 261.049C216.564 260.545 216.209 260.167 215.764 259.916C215.319 259.665 214.845 259.54 214.341 259.54C213.825 259.541 213.345 259.668 212.902 259.921C212.459 260.173 212.101 260.552 211.826 261.056C211.552 261.561 211.417 262.185 211.42 262.929C211.422 263.673 211.563 264.297 211.841 264.8C212.119 265.304 212.474 265.681 212.907 265.933C213.352 266.184 213.826 266.309 214.33 266.308ZM223.84 267.59C222.772 267.591 221.883 267.323 221.173 266.784C220.463 266.245 220.046 265.514 219.922 264.59L221.47 264.587C221.568 265.055 221.816 265.463 222.213 265.81C222.622 266.146 223.169 266.313 223.853 266.312C224.489 266.311 224.956 266.178 225.255 265.914C225.554 265.637 225.703 265.313 225.702 264.941C225.7 264.401 225.5 264.041 225.104 263.862C224.719 263.682 224.172 263.521 223.464 263.378C222.983 263.283 222.503 263.146 222.022 262.967C221.541 262.787 221.138 262.536 220.813 262.212C220.488 261.877 220.324 261.439 220.322 260.899C220.319 260.119 220.605 259.483 221.179 258.99C221.765 258.485 222.556 258.232 223.552 258.23C224.5 258.229 225.275 258.468 225.877 258.947C226.491 259.414 226.847 260.085 226.946 260.961L225.452 260.963C225.391 260.507 225.191 260.154 224.854 259.902C224.529 259.639 224.091 259.507 223.539 259.508C222.999 259.509 222.579 259.624 222.28 259.852C221.993 260.081 221.85 260.381 221.852 260.753C221.853 261.113 222.04 261.395 222.413 261.598C222.798 261.801 223.314 261.975 223.963 262.118C224.515 262.237 225.038 262.386 225.531 262.565C226.035 262.732 226.444 262.99 226.758 263.337C227.083 263.673 227.247 264.165 227.249 264.813C227.264 265.616 226.961 266.283 226.339 266.812C225.729 267.329 224.896 267.588 223.84 267.59ZM232.043 267.361C231.227 267.362 230.584 267.165 230.114 266.77C229.645 266.375 229.408 265.661 229.404 264.629L229.385 259.715L227.837 259.718L227.833 258.44L229.381 258.437L229.57 256.295L230.884 256.293L230.893 258.435L233.521 258.431L233.525 259.709L230.897 259.713L230.916 264.627C230.918 265.191 231.034 265.575 231.263 265.778C231.491 265.97 231.894 266.065 232.47 266.064L233.406 266.063L233.411 267.359L232.043 267.361ZM238.744 267.567C237.892 267.568 237.136 267.377 236.474 266.994C235.813 266.599 235.289 266.054 234.902 265.359C234.527 264.663 234.338 263.842 234.334 262.894C234.331 261.958 234.514 261.141 234.883 260.445C235.252 259.736 235.766 259.189 236.425 258.804C237.095 258.407 237.869 258.208 238.745 258.207C239.609 258.205 240.353 258.402 240.979 258.797C241.616 259.18 242.104 259.69 242.443 260.325C242.781 260.961 242.952 261.644 242.955 262.376C242.955 262.508 242.95 262.64 242.938 262.772C242.939 262.904 242.939 263.054 242.94 263.222L235.83 263.233C235.868 263.917 236.027 264.487 236.304 264.943C236.594 265.386 236.949 265.722 237.37 265.949C237.803 266.176 238.259 266.29 238.739 266.289C239.363 266.288 239.885 266.143 240.304 265.854C240.723 265.566 241.027 265.175 241.217 264.683L242.711 264.681C242.474 265.509 242.015 266.2 241.333 266.753C240.663 267.294 239.8 267.565 238.744 267.567ZM238.713 259.485C237.993 259.486 237.352 259.709 236.79 260.154C236.24 260.587 235.924 261.223 235.843 262.063L241.459 262.055C241.42 261.251 241.142 260.621 240.624 260.166C240.106 259.711 239.469 259.484 238.713 259.485ZM248.528 267.552C247.64 267.553 246.86 267.35 246.186 266.943C245.524 266.536 245.006 265.979 244.632 265.272C244.269 264.564 244.086 263.761 244.082 262.861C244.079 261.961 244.262 261.162 244.631 260.466C245.001 259.757 245.514 259.204 246.173 258.807C246.831 258.398 247.611 258.193 248.511 258.192C249.243 258.191 249.891 258.34 250.456 258.639C251.021 258.938 251.461 259.357 251.775 259.897L251.754 254.371L253.266 254.368L253.316 267.328L251.948 267.33L251.798 265.855C251.512 266.287 251.099 266.678 250.56 267.027C250.022 267.375 249.344 267.55 248.528 267.552ZM248.685 266.238C249.285 266.237 249.813 266.098 250.268 265.821C250.735 265.532 251.093 265.136 251.343 264.631C251.605 264.127 251.735 263.539 251.732 262.867C251.73 262.195 251.596 261.607 251.33 261.103C251.076 260.6 250.714 260.21 250.245 259.935C249.788 259.648 249.26 259.505 248.66 259.506C248.072 259.506 247.544 259.651 247.077 259.94C246.622 260.217 246.264 260.607 246.002 261.112C245.752 261.616 245.628 262.204 245.63 262.876C245.633 263.548 245.761 264.136 246.015 264.64C246.281 265.143 246.643 265.539 247.1 265.826C247.569 266.101 248.097 266.238 248.685 266.238ZM263.559 267.529C262.707 267.53 261.95 267.339 261.289 266.956C260.627 266.561 260.103 266.016 259.716 265.321C259.342 264.625 259.152 263.803 259.149 262.855C259.145 261.919 259.328 261.103 259.698 260.407C260.067 259.698 260.581 259.151 261.239 258.766C261.91 258.369 262.683 258.17 263.559 258.169C264.423 258.167 265.168 258.364 265.793 258.759C266.431 259.142 266.919 259.651 267.257 260.287C267.596 260.922 267.766 261.606 267.769 262.338C267.769 262.47 267.764 262.602 267.752 262.734C267.753 262.866 267.754 263.016 267.754 263.184L260.644 263.195C260.683 263.879 260.841 264.449 261.119 264.904C261.408 265.348 261.764 265.683 262.185 265.911C262.617 266.138 263.074 266.251 263.554 266.251C264.178 266.25 264.699 266.105 265.118 265.816C265.537 265.528 265.842 265.137 266.032 264.645L267.526 264.643C267.289 265.471 266.83 266.162 266.148 266.715C265.478 267.256 264.615 267.527 263.559 267.529ZM263.528 259.447C262.808 259.448 262.167 259.671 261.604 260.116C261.054 260.548 260.738 261.185 260.658 262.025L266.274 262.016C266.235 261.213 265.956 260.583 265.438 260.128C264.921 259.673 264.284 259.446 263.528 259.447ZM271.514 267.3L268.096 258.378L269.68 258.375L272.391 265.841L275.062 258.367L276.61 258.365L273.26 267.298L271.514 267.3ZM281.385 267.501C280.533 267.502 279.776 267.312 279.115 266.929C278.453 266.534 277.929 265.988 277.542 265.293C277.168 264.598 276.979 263.776 276.975 262.828C276.971 261.892 277.154 261.076 277.524 260.379C277.893 259.671 278.407 259.124 279.065 258.739C279.736 258.342 280.509 258.143 281.385 258.141C282.249 258.14 282.994 258.337 283.619 258.732C284.257 259.115 284.745 259.624 285.083 260.259C285.422 260.895 285.592 261.579 285.595 262.311C285.596 262.443 285.59 262.575 285.579 262.707C285.579 262.839 285.58 262.989 285.58 263.157L278.47 263.168C278.509 263.852 278.667 264.421 278.945 264.877C279.235 265.32 279.59 265.656 280.011 265.883C280.444 266.111 280.9 266.224 281.38 266.223C282.004 266.222 282.525 266.077 282.944 265.789C283.363 265.5 283.668 265.11 283.858 264.617L285.352 264.615C285.115 265.443 284.656 266.134 283.974 266.687C283.304 267.228 282.441 267.5 281.385 267.501ZM281.354 259.419C280.634 259.42 279.993 259.643 279.431 260.088C278.88 260.521 278.565 261.158 278.484 261.998L284.1 261.989C284.061 261.185 283.782 260.555 283.265 260.1C282.747 259.645 282.11 259.418 281.354 259.419ZM287.118 267.276L287.084 258.348L288.452 258.346L288.585 260.056C288.858 259.468 289.276 258.999 289.839 258.65C290.402 258.301 291.097 258.126 291.925 258.125L291.931 259.709L291.517 259.71C290.989 259.71 290.504 259.807 290.06 260C289.617 260.181 289.264 260.493 289.002 260.937C288.74 261.382 288.61 261.994 288.613 262.774L288.63 267.274L287.118 267.276ZM294.144 271.226L296.34 266.398L295.818 266.399L292.241 258.34L293.879 258.338L296.858 265.281L299.963 258.329L301.529 258.326L295.728 271.223L294.144 271.226ZM305.866 267.463C304.978 267.465 304.197 267.262 303.524 266.855C302.862 266.448 302.344 265.891 301.969 265.183C301.607 264.476 301.424 263.672 301.42 262.772C301.417 261.872 301.6 261.074 301.969 260.378C302.338 259.669 302.852 259.116 303.511 258.719C304.169 258.31 304.948 258.105 305.848 258.104C306.58 258.102 307.229 258.251 307.794 258.551C308.359 258.85 308.799 259.269 309.113 259.809L309.092 254.283L310.604 254.28L310.653 267.24L309.285 267.242L309.136 265.766C308.849 266.199 308.437 266.59 307.898 266.938C307.359 267.287 306.682 267.462 305.866 267.463ZM306.023 266.149C306.623 266.148 307.151 266.01 307.606 265.733C308.072 265.444 308.431 265.048 308.681 264.543C308.943 264.039 309.073 263.451 309.07 262.779C309.068 262.107 308.933 261.519 308.668 261.015C308.414 260.512 308.052 260.122 307.583 259.847C307.126 259.56 306.597 259.416 305.997 259.417C305.409 259.418 304.882 259.563 304.415 259.852C303.96 260.128 303.602 260.519 303.34 261.023C303.089 261.528 302.966 262.116 302.968 262.788C302.971 263.46 303.099 264.048 303.353 264.551C303.619 265.055 303.98 265.45 304.438 265.738C304.907 266.013 305.435 266.15 306.023 266.149ZM315.589 267.449C314.845 267.45 314.226 267.325 313.733 267.073C313.24 266.822 312.873 266.487 312.632 266.067C312.39 265.647 312.268 265.192 312.266 264.7C312.263 263.788 312.608 263.085 313.302 262.592C313.996 262.099 314.944 261.852 316.144 261.85L318.556 261.846L318.555 261.738C318.552 260.958 318.346 260.37 317.936 259.975C317.527 259.568 316.98 259.364 316.296 259.365C315.708 259.366 315.199 259.517 314.768 259.818C314.349 260.106 314.086 260.533 313.981 261.097L312.433 261.099C312.49 260.451 312.704 259.905 313.074 259.46C313.457 259.016 313.929 258.679 314.493 258.45C315.056 258.209 315.655 258.088 316.291 258.087C317.539 258.086 318.476 258.42 319.103 259.091C319.742 259.75 320.063 260.632 320.067 261.736L320.088 267.226L318.738 267.228L318.642 265.626C318.392 266.13 318.022 266.563 317.531 266.924C317.052 267.272 316.405 267.447 315.589 267.449ZM315.818 266.17C316.394 266.169 316.885 266.019 317.292 265.718C317.711 265.417 318.028 265.027 318.242 264.546C318.456 264.066 318.562 263.562 318.56 263.034L318.56 263.016L316.274 263.019C315.386 263.021 314.757 263.178 314.386 263.49C314.027 263.791 313.848 264.169 313.85 264.625C313.852 265.093 314.021 265.471 314.358 265.758C314.707 266.034 315.194 266.171 315.818 266.17ZM322.58 271.182L324.775 266.354L324.253 266.355L320.677 258.297L322.315 258.294L325.293 265.238L328.399 258.285L329.965 258.282L324.164 271.179L322.58 271.182ZM333.988 267.42C332.92 267.422 332.031 267.153 331.321 266.614C330.611 266.075 330.194 265.344 330.071 264.42L331.619 264.418C331.716 264.886 331.964 265.293 332.361 265.641C332.771 265.976 333.317 266.143 334.001 266.142C334.637 266.141 335.105 266.009 335.404 265.744C335.703 265.468 335.851 265.143 335.85 264.771C335.848 264.231 335.649 263.872 335.252 263.692C334.867 263.513 334.321 263.352 333.612 263.209C333.132 263.114 332.651 262.976 332.17 262.797C331.69 262.618 331.287 262.366 330.962 262.043C330.636 261.707 330.473 261.27 330.471 260.73C330.468 259.95 330.753 259.313 331.327 258.82C331.913 258.315 332.704 258.062 333.7 258.061C334.648 258.059 335.423 258.298 336.025 258.777C336.639 259.244 336.995 259.916 337.095 260.791L335.601 260.794C335.539 260.338 335.34 259.984 335.003 259.733C334.678 259.469 334.239 259.338 333.687 259.339C333.147 259.34 332.728 259.454 332.429 259.683C332.141 259.911 331.999 260.211 332 260.583C332.001 260.943 332.188 261.225 332.561 261.428C332.946 261.632 333.463 261.805 334.111 261.948C334.664 262.067 335.186 262.216 335.679 262.396C336.184 262.563 336.593 262.82 336.906 263.168C337.231 263.503 337.395 263.995 337.397 264.643C337.413 265.447 337.109 266.113 336.487 266.642C335.877 267.159 335.044 267.419 333.988 267.42ZM185.312 292.433L182.668 283.509L184.18 283.507L186.097 290.506L188.158 283.501L189.868 283.498L192.001 290.497L193.846 283.492L195.376 283.49L192.8 292.421L191.252 292.424L189.028 285.065L186.86 292.431L185.312 292.433ZM197.459 281.506C197.159 281.507 196.907 281.411 196.702 281.219C196.509 281.016 196.412 280.764 196.411 280.464C196.41 280.176 196.505 279.936 196.696 279.744C196.9 279.551 197.151 279.455 197.451 279.454C197.739 279.454 197.986 279.55 198.19 279.741C198.395 279.933 198.498 280.173 198.499 280.461C198.5 280.761 198.399 281.013 198.196 281.217C197.993 281.41 197.747 281.506 197.459 281.506ZM196.745 292.415L196.711 283.487L198.223 283.485L198.257 292.413L196.745 292.415ZM203.917 292.404C203.101 292.406 202.459 292.209 201.989 291.813C201.52 291.418 201.283 290.704 201.279 289.672L201.26 284.758L199.712 284.761L199.707 283.483L201.255 283.48L201.445 281.338L202.759 281.336L202.767 283.478L205.395 283.474L205.4 284.752L202.772 284.756L202.791 289.67C202.793 290.234 202.909 290.618 203.137 290.822C203.366 291.013 203.768 291.109 204.344 291.108L205.28 291.106L205.285 292.402L203.917 292.404ZM206.85 292.4L206.801 279.44L208.313 279.438L208.334 285C208.632 284.447 209.056 284.02 209.607 283.72C210.158 283.407 210.757 283.25 211.405 283.249C212.437 283.247 213.267 283.57 213.893 284.217C214.52 284.852 214.835 285.836 214.84 287.168L214.86 292.388L213.366 292.39L213.347 287.332C213.34 285.472 212.586 284.543 211.086 284.545C210.306 284.547 209.653 284.83 209.128 285.394C208.602 285.947 208.341 286.74 208.345 287.772L208.362 292.398L206.85 292.4ZM232.52 296.32L232.499 290.884C232.212 291.317 231.8 291.707 231.261 292.056C230.723 292.405 230.045 292.58 229.229 292.581C228.341 292.583 227.56 292.38 226.887 291.973C226.225 291.566 225.707 291.009 225.333 290.301C224.97 289.594 224.787 288.79 224.783 287.89C224.78 286.99 224.963 286.192 225.332 285.495C225.701 284.787 226.215 284.234 226.874 283.837C227.532 283.428 228.312 283.223 229.212 283.221C229.944 283.22 230.592 283.369 231.157 283.668C231.722 283.968 232.162 284.387 232.476 284.926L232.614 283.432L233.982 283.43L234.032 296.318L232.52 296.32ZM229.386 291.267C229.986 291.266 230.514 291.127 230.969 290.851C231.436 290.562 231.794 290.165 232.044 289.661C232.306 289.157 232.436 288.568 232.433 287.896C232.431 287.224 232.297 286.637 232.031 286.133C231.777 285.63 231.415 285.24 230.946 284.965C230.489 284.677 229.961 284.534 229.361 284.535C228.773 284.536 228.245 284.681 227.778 284.97C227.323 285.246 226.965 285.637 226.703 286.141C226.453 286.646 226.329 287.234 226.331 287.906C226.334 288.578 226.462 289.166 226.716 289.669C226.982 290.173 227.344 290.568 227.801 290.856C228.27 291.131 228.798 291.268 229.386 291.267ZM243.759 283.415L243.793 292.343L242.425 292.345L242.329 290.743C242.043 291.308 241.631 291.752 241.092 292.077C240.553 292.402 239.942 292.565 239.258 292.566C238.202 292.568 237.355 292.251 236.716 291.616C236.09 290.969 235.774 289.979 235.769 288.647L235.749 283.427L237.261 283.425L237.28 288.483C237.287 290.343 238.059 291.272 239.595 291.269C240.363 291.268 240.998 290.991 241.5 290.439C242.014 289.874 242.269 289.075 242.265 288.043L242.247 283.417L243.759 283.415ZM248.753 292.551C248.009 292.553 247.39 292.427 246.897 292.176C246.404 291.925 246.037 291.59 245.795 291.17C245.554 290.75 245.432 290.294 245.43 289.802C245.427 288.89 245.772 288.188 246.466 287.695C247.16 287.202 248.107 286.954 249.307 286.953L251.719 286.949L251.719 286.841C251.716 286.061 251.51 285.473 251.1 285.078C250.691 284.67 250.144 284.467 249.46 284.468C248.872 284.469 248.362 284.62 247.932 284.921C247.513 285.209 247.25 285.636 247.144 286.2L245.596 286.202C245.654 285.554 245.868 285.008 246.238 284.563C246.621 284.119 247.093 283.782 247.656 283.553C248.219 283.312 248.819 283.191 249.455 283.19C250.703 283.188 251.64 283.523 252.267 284.194C252.905 284.853 253.227 285.734 253.231 286.838L253.252 292.328L251.902 292.331L251.806 290.729C251.556 291.233 251.185 291.666 250.695 292.026C250.216 292.375 249.569 292.55 248.753 292.551ZM248.982 291.273C249.558 291.272 250.049 291.121 250.456 290.821C250.875 290.52 251.192 290.13 251.406 289.649C251.62 289.169 251.726 288.665 251.724 288.137L251.724 288.119L249.438 288.122C248.55 288.124 247.92 288.281 247.55 288.593C247.191 288.894 247.012 289.272 247.014 289.728C247.016 290.196 247.185 290.574 247.522 290.861C247.871 291.137 248.358 291.274 248.982 291.273ZM255.02 292.326L254.971 279.366L256.483 279.363L256.532 292.323L255.02 292.326ZM259.387 281.411C259.087 281.411 258.834 281.316 258.63 281.124C258.437 280.92 258.34 280.669 258.339 280.369C258.338 280.081 258.433 279.84 258.624 279.648C258.827 279.456 259.079 279.359 259.379 279.359C259.667 279.359 259.913 279.454 260.118 279.646C260.323 279.838 260.426 280.077 260.427 280.365C260.428 280.665 260.327 280.918 260.124 281.122C259.92 281.314 259.675 281.411 259.387 281.411ZM258.672 292.32L258.638 283.392L260.15 283.39L260.184 292.318L258.672 292.32ZM262.803 292.314L262.774 284.664L261.424 284.666L261.419 283.388L262.769 283.386L262.763 281.838C262.76 280.974 262.973 280.343 263.404 279.947C263.834 279.55 264.464 279.351 265.292 279.35L266.192 279.349L266.197 280.645L265.531 280.646C265.075 280.646 264.751 280.743 264.56 280.935C264.368 281.115 264.274 281.427 264.275 281.871L264.281 283.383L269.825 283.375L269.859 292.303L268.347 292.305L268.318 284.655L264.286 284.661L264.315 292.311L262.803 292.314ZM269.08 281.666C268.792 281.667 268.546 281.571 268.341 281.379C268.137 281.176 268.034 280.924 268.032 280.624C268.031 280.336 268.132 280.096 268.336 279.903C268.539 279.711 268.785 279.615 269.073 279.614C269.373 279.614 269.619 279.709 269.812 279.901C270.016 280.093 270.119 280.332 270.12 280.62C270.122 280.92 270.021 281.173 269.817 281.377C269.626 281.569 269.38 281.666 269.08 281.666ZM276.135 292.509C275.283 292.511 274.514 292.32 273.829 291.937C273.155 291.542 272.619 290.997 272.22 290.301C271.834 289.594 271.638 288.772 271.635 287.836C271.631 286.9 271.82 286.084 272.202 285.387C272.595 284.679 273.127 284.132 273.797 283.747C274.48 283.35 275.247 283.151 276.099 283.149C277.155 283.148 278.044 283.422 278.766 283.973C279.5 284.524 279.965 285.261 280.161 286.185L278.613 286.187C278.491 285.636 278.195 285.21 277.726 284.911C277.257 284.6 276.71 284.444 276.086 284.445C275.582 284.446 275.108 284.573 274.665 284.825C274.222 285.078 273.864 285.457 273.59 285.961C273.316 286.466 273.18 287.09 273.183 287.834C273.186 288.578 273.326 289.202 273.604 289.705C273.882 290.209 274.243 290.592 274.688 290.855C275.133 291.107 275.608 291.232 276.112 291.231C276.736 291.23 277.281 291.079 277.748 290.779C278.215 290.466 278.507 290.028 278.625 289.463L280.173 289.461C279.997 290.361 279.543 291.094 278.814 291.659C278.084 292.224 277.191 292.508 276.135 292.509ZM284.766 292.496C284.022 292.497 283.404 292.372 282.911 292.121C282.418 291.87 282.051 291.534 281.809 291.114C281.567 290.695 281.446 290.239 281.444 289.747C281.44 288.835 281.786 288.133 282.48 287.639C283.174 287.146 284.121 286.899 285.321 286.897L287.733 286.893L287.733 286.785C287.73 286.005 287.523 285.418 287.114 285.022C286.704 284.615 286.158 284.412 285.474 284.413C284.886 284.414 284.376 284.565 283.945 284.865C283.526 285.154 283.264 285.58 283.158 286.144L281.61 286.147C281.668 285.499 281.882 284.952 282.252 284.508C282.634 284.063 283.107 283.727 283.67 283.498C284.233 283.257 284.833 283.136 285.469 283.135C286.717 283.133 287.654 283.468 288.28 284.139C288.919 284.798 289.24 285.679 289.245 286.783L289.266 292.273L287.916 292.275L287.819 290.673C287.569 291.178 287.199 291.61 286.708 291.971C286.23 292.32 285.582 292.495 284.766 292.496ZM284.996 291.218C285.572 291.217 286.063 291.066 286.47 290.765C286.889 290.465 287.205 290.074 287.419 289.594C287.633 289.114 287.74 288.609 287.738 288.081L287.737 288.063L285.451 288.067C284.563 288.068 283.934 288.225 283.563 288.538C283.204 288.838 283.026 289.217 283.028 289.673C283.029 290.141 283.199 290.518 283.536 290.806C283.885 291.081 284.372 291.219 284.996 291.218ZM294.316 292.265C293.5 292.266 292.857 292.069 292.387 291.674C291.918 291.279 291.681 290.565 291.677 289.533L291.659 284.619L290.111 284.622L290.106 283.344L291.654 283.341L291.843 281.199L293.157 281.197L293.166 283.339L295.794 283.335L295.799 284.613L293.171 284.617L293.189 289.531C293.191 290.095 293.307 290.479 293.536 290.682C293.764 290.874 294.167 290.969 294.743 290.969L295.679 290.967L295.684 292.263L294.316 292.265ZM298.125 281.351C297.825 281.352 297.573 281.256 297.368 281.065C297.175 280.861 297.078 280.609 297.077 280.309C297.076 280.021 297.171 279.781 297.362 279.589C297.566 279.396 297.817 279.3 298.117 279.299C298.405 279.299 298.652 279.395 298.856 279.586C299.061 279.778 299.164 280.018 299.165 280.306C299.166 280.606 299.065 280.858 298.862 281.062C298.659 281.255 298.413 281.351 298.125 281.351ZM297.411 292.26L297.377 283.333L298.889 283.33L298.923 292.258L297.411 292.26ZM305.124 292.465C304.284 292.466 303.527 292.275 302.854 291.892C302.18 291.509 301.644 290.97 301.246 290.275C300.859 289.567 300.664 288.739 300.66 287.791C300.657 286.843 300.852 286.021 301.245 285.325C301.638 284.616 302.17 284.069 302.841 283.684C303.523 283.299 304.284 283.106 305.124 283.105C305.964 283.103 306.721 283.294 307.395 283.677C308.068 284.06 308.598 284.605 308.985 285.313C309.383 286.008 309.585 286.83 309.588 287.778C309.592 288.726 309.397 289.554 309.004 290.263C308.61 290.959 308.072 291.5 307.39 291.885C306.719 292.27 305.964 292.463 305.124 292.465ZM305.119 291.169C305.635 291.168 306.115 291.041 306.558 290.788C307.001 290.536 307.359 290.157 307.633 289.653C307.907 289.148 308.043 288.524 308.04 287.78C308.037 287.036 307.897 286.412 307.619 285.909C307.353 285.405 306.998 285.028 306.553 284.776C306.108 284.525 305.633 284.4 305.129 284.401C304.613 284.401 304.134 284.528 303.691 284.781C303.248 285.034 302.889 285.412 302.615 285.916C302.341 286.421 302.205 287.045 302.208 287.789C302.211 288.533 302.351 289.157 302.629 289.66C302.907 290.164 303.263 290.541 303.696 290.793C304.141 291.044 304.615 291.169 305.119 291.169ZM311.208 292.239L311.174 283.311L312.542 283.309L312.638 284.911C312.924 284.347 313.336 283.902 313.875 283.577C314.413 283.252 315.025 283.089 315.709 283.088C316.765 283.087 317.606 283.409 318.232 284.056C318.871 284.691 319.193 285.675 319.198 287.007L319.218 292.227L317.706 292.229L317.686 287.171C317.679 285.311 316.908 284.382 315.372 284.385C314.604 284.386 313.963 284.669 313.449 285.234C312.947 285.787 312.698 286.579 312.702 287.611L312.72 292.237L311.208 292.239Z" fill="#0F2137"/>
<defs>
<filter id="filter0_d" x="0.478516" y="0.117676" width="501.145" height="520.429" filterUnits="userSpaceOnUse" color-interpolation-filters="sRGB">
<feFlood flood-opacity="0" result="BackgroundImageFix"/>
<feColorMatrix in="SourceAlpha" type="matrix" values="0 0 0 0 0 0 0 0 0 0 0 0 0 0 0 0 0 0 127 0"/>
<feOffset dy="25"/>
<feGaussianBlur stdDeviation="50"/>
<feColorMatrix type="matrix" values="0 0 0 0 0.269792 0 0 0 0 0.346104 0 0 0 0 0.616667 0 0 0 0.08 0"/>
<feBlend mode="normal" in2="BackgroundImageFix" result="effect1_dropShadow"/>
<feBlend mode="normal" in="SourceGraphic" in2="effect1_dropShadow" result="shape"/>
</filter>
</defs>
</svg>
