<svg width="392" height="373" viewBox="0 0 392 373" fill="none" xmlns="http://www.w3.org/2000/svg">
<path d="M159.444 266.785C156.759 278.999 151.365 290.479 143.841 299.948C137.443 308.035 129.242 314.941 119.982 320.119L122.676 323.201C132.197 317.714 140.419 310.711 146.984 302.451C154.88 292.498 160.538 280.469 163.361 267.656C166.185 254.844 166.069 241.55 163.062 229.194C162.219 225.713 161.144 222.33 159.864 219.047C168.245 202.886 172.099 185.035 174.95 168.007C175.651 163.866 176.302 159.637 176.928 155.562C179.255 140.664 181.656 125.276 186.374 110.807C191.696 94.4835 200.37 78.8096 211.463 65.4771C222.864 51.7692 236.345 40.8045 251.546 32.8984C257.789 29.6676 264.309 26.9648 270.944 24.8499L268.092 21.5879C261.751 23.7368 255.638 26.2971 249.716 29.3796C240.452 34.1901 231.793 40.1165 223.858 47.0538C218.358 51.8625 213.193 57.1748 208.393 62.9362C196.992 76.6441 188.06 92.7818 182.578 109.59C177.771 124.349 175.33 139.905 172.994 154.944C172.368 159.019 171.704 163.233 171.004 167.346C168.372 183.015 164.903 199.336 157.78 214.237C152.092 202.182 143.523 192.169 133.077 185.68C125.335 180.858 116.398 178.036 107.237 177.505C97.7375 176.952 88.6492 178.93 80.9463 183.251C73.0538 187.659 66.6311 194.839 62.8018 203.439C58.886 212.273 58.1646 221.789 60.7394 230.254C63.5808 239.599 70.3851 247.654 79.8944 252.92C88.8854 257.896 99.7119 259.968 109.623 258.597C119.22 257.261 128.442 253.283 136.983 246.797C144.718 240.935 151.607 233.136 156.912 224.253C157.025 224.048 157.151 223.859 157.263 223.654C157.986 225.754 158.605 227.918 159.138 230.105C162.028 241.901 162.128 254.571 159.444 266.785ZM153.511 222.213C148.461 230.66 141.911 238.059 134.578 243.621C126.574 249.691 117.992 253.401 109.081 254.641C100.026 255.9 90.0938 254.002 81.8539 249.43C73.2591 244.664 67.1214 237.432 64.5803 229.097C59.8923 213.728 67.957 195.112 82.9213 186.723C89.9479 182.781 98.2888 180.979 107.027 181.481C115.525 181.982 123.798 184.589 130.984 189.048C141.58 195.618 150.144 206.14 155.452 218.792C154.836 219.968 154.18 221.098 153.511 222.213Z" fill="#DAE2E8"/>
<path d="M87.5098 340.57L138.918 337.275L128.292 326.266L99.3538 335.369L124.369 322.201L124.359 322.191L124.372 322.203L129.733 311.059L118.412 316.03L110.863 308.209L87.5098 340.57Z" fill="#DAE2E8"/>
</svg>
