<svg width="402" height="384" viewBox="0 0 402 384" fill="none" xmlns="http://www.w3.org/2000/svg">
<path d="M234.058 273.27C236.22 285.587 241.12 297.287 248.233 307.068C254.28 315.421 262.18 322.67 271.21 328.238L268.387 331.202C259.109 325.315 251.193 317.968 244.986 309.435C237.522 299.154 232.382 286.896 230.107 273.974C227.833 261.052 228.515 247.776 232.047 235.559C233.037 232.117 234.256 228.783 235.674 225.557C227.99 209.054 224.9 191.054 222.778 173.921C222.254 169.754 221.784 165.501 221.332 161.403C219.643 146.419 217.9 130.942 213.804 116.286C209.183 99.7501 201.185 83.7205 190.67 69.9272C179.864 55.7456 166.863 44.2161 152.013 35.6689C145.913 32.1749 139.515 29.1966 132.976 26.8006L135.964 23.6632C142.208 26.0805 148.206 28.8992 153.992 32.2314C163.042 37.4325 171.44 43.7228 179.072 50.9921C184.362 56.031 189.296 61.5587 193.846 67.5195C204.652 81.7011 212.888 98.205 217.648 115.232C221.821 130.183 223.597 145.828 225.289 160.953C225.741 165.051 226.225 169.29 226.748 173.428C228.711 189.196 231.48 205.65 237.961 220.841C244.158 209.04 253.146 199.401 263.86 193.363C271.8 188.876 280.85 186.438 290.025 186.298C299.539 186.15 308.535 188.514 316.046 193.16C323.744 197.9 329.854 205.347 333.314 214.102C336.849 223.096 337.164 232.634 334.231 240.981C330.993 250.196 323.852 257.954 314.127 262.81C304.932 267.398 294.027 269.007 284.183 267.214C274.652 265.47 265.608 261.102 257.351 254.258C249.873 248.072 243.323 239.986 238.401 230.885C238.297 230.676 238.18 230.481 238.076 230.271C237.264 232.339 236.553 234.474 235.928 236.636C232.538 248.298 231.897 260.953 234.058 273.27ZM241.886 228.992C246.571 237.647 252.8 245.317 259.889 251.188C267.627 257.593 276.043 261.666 284.893 263.285C293.886 264.929 303.89 263.456 312.318 259.239C321.108 254.844 327.548 247.88 330.443 239.661C335.782 224.506 328.518 205.563 313.925 196.544C307.073 192.306 298.817 190.15 290.065 190.279C281.553 190.417 273.177 192.669 265.807 196.818C254.94 202.93 245.936 213.077 240.093 225.491C240.658 226.692 241.265 227.849 241.886 228.992Z" fill="#DAE2E8"/>
<path d="M302.78 350.055L251.559 344.572L262.645 334.025L291.169 344.354L266.738 330.132L266.749 330.122L266.735 330.133L261.854 318.77L272.953 324.22L280.828 316.728L302.78 350.055Z" fill="#DAE2E8"/>
</svg>
