<svg width="21" height="21" viewBox="0 0 21 21" fill="none" xmlns="http://www.w3.org/2000/svg">
<g clip-path="url(#clip0)">
<path d="M10.2354 4.22413C14.0566 4.21825 17.5298 6.30352 20.0998 9.69529C20.3095 9.97317 20.311 10.3618 20.1034 10.6404C17.5594 14.0441 14.1021 16.14 10.2809 16.1459C6.45967 16.1518 2.98641 14.0665 0.416433 10.6747C0.206718 10.3969 0.205235 10.0082 0.412825 9.72968C2.95687 6.32595 6.41416 4.23001 10.2354 4.22413ZM10 14.383C12.5372 14.5387 14.6239 12.4448 14.4547 9.90444C14.3158 7.80995 12.6114 6.11471 10.5162 5.98702C7.97904 5.83137 5.89231 7.92519 6.06156 10.4656C6.20456 12.556 7.9089 14.2512 10 14.383ZM10.1195 12.4436C11.4863 12.5274 12.6111 11.4006 12.5159 10.0343C12.4421 8.90519 11.5221 7.99426 10.3927 7.92236C9.02588 7.83855 7.90099 8.96537 7.99622 10.3317C8.07418 11.4648 8.9941 12.3758 10.1195 12.4436Z" fill="#B5C3CB"/>
</g>
<defs>
<clipPath id="clip0">
<rect width="20" height="20" fill="white" transform="matrix(-0.999999 0.00153908 0.00381744 0.999993 20.2197 0.169678)"/>
</clipPath>
</defs>
</svg>
