<svg width="380" height="25" viewBox="0 0 380 25" fill="none" xmlns="http://www.w3.org/2000/svg">
<g clip-path="url(#clip0)">
<path d="M378.821 7.3128C379.168 7.50987 379.425 7.75009 379.572 8.01452C379.719 8.27895 379.751 8.56034 379.667 8.83646C379.579 9.57784 379.063 9.93177 377.745 9.9599C374.734 10.0248 371.722 10.0566 368.708 10.0555C357.584 10.057 346.466 10.3422 335.348 10.749C325.508 11.1091 315.668 11.455 305.824 11.7447C290.19 12.2049 274.554 12.618 258.919 13.0445C253.129 13.2016 247.337 13.3342 241.554 13.4891C240.856 13.5064 240.168 13.5981 239.527 13.7592L324.78 14.2752C325.344 14.5403 325.701 14.9158 325.78 15.3271C325.859 15.7383 325.654 16.1552 325.206 16.4948C321.883 16.6923 318.548 16.7823 315.218 16.7643C306.189 16.7586 297.161 16.7121 288.131 16.7004C280.487 16.6916 272.842 16.7166 265.198 16.7149C252.345 16.7111 239.491 16.6991 226.638 16.6788C219.458 16.6635 212.281 16.6114 205.103 16.5593C198.277 16.5042 191.456 16.3612 184.628 16.3633C169.804 16.3672 154.979 16.4091 140.153 16.4893C129.618 16.5467 119.064 16.7036 108.521 16.7908C102.961 16.8364 97.4008 16.8269 91.8426 16.8419C91.495 16.8532 91.1471 16.8505 90.8016 16.834C90.3373 16.8017 89.9177 16.6723 89.628 16.4724C89.3383 16.2724 89.2003 16.0169 89.2421 15.7577C89.3529 15.2932 89.5148 14.8322 89.7267 14.3771C92.4548 14.0593 95.2169 13.8554 97.9892 13.7672C106.202 13.3674 114.416 12.9968 122.634 12.6555C129.466 12.3754 136.299 12.0975 143.135 11.9389C154.487 11.6789 165.842 11.4955 177.195 11.308C191.563 11.0709 205.931 10.8767 220.299 10.6345C231.879 10.4377 243.46 10.198 255.035 9.97278C255.426 9.94406 255.813 9.90107 256.195 9.84411C255.011 9.51981 253.664 9.41006 252.34 9.53004C243.418 9.63019 234.496 9.73235 225.575 9.83656C214.34 9.96379 203.106 10.0914 191.873 10.2193C179.596 10.3642 167.319 10.5181 155.041 10.6808C145.197 10.8041 135.351 10.9918 125.509 11.0578C113.693 11.1364 101.879 11.1455 90.0665 11.1321C79.9917 11.1218 69.9189 11.0696 59.8481 10.9755C48.3953 10.864 36.9508 10.6389 25.4964 10.5366C18.1006 10.4732 10.6825 10.5481 3.27384 10.5615C3.04291 10.5668 2.81029 10.5792 2.57917 10.5774C1.30012 10.5832 0.784325 10.4347 0.659528 10.0301C0.534731 9.62548 1.03554 9.32602 2.23243 9.21385C3.49187 9.08729 4.76073 8.99755 6.03367 8.94502C9.27508 8.83403 12.52 8.71582 15.7615 8.68346C25.6062 8.58363 35.4511 8.48685 45.2921 8.45962C53.9797 8.43632 62.6613 8.54389 71.3583 8.52855C85.0204 8.5047 98.6838 8.46447 112.348 8.35991C123.233 8.27708 134.122 8.09003 145.008 7.94695C158.554 7.76816 172.099 7.58906 185.643 7.40962C200.702 7.21592 215.764 7.0068 230.818 6.85098C245.533 6.69853 260.246 6.57845 274.96 6.4907C286.31 6.41665 297.66 6.34974 309.009 6.35334C321.167 6.35576 333.323 6.38681 345.473 6.514C355.769 6.62239 366.053 6.88112 376.34 7.08978C377.176 7.13491 378.005 7.20941 378.821 7.3128ZM260.697 9.82577L260.686 9.72391L259.645 9.74773L259.649 9.87328L260.697 9.82577Z" fill="#EF9E48"/>
</g>
<defs>
<clipPath id="clip0">
<rect width="379" height="15" fill="white" transform="matrix(0.999689 -0.0228923 0.0251703 0.999732 0.599609 9.02881)"/>
</clipPath>
</defs>
</svg>
