<svg width="59" height="19" viewBox="0 0 59 19" fill="none" xmlns="http://www.w3.org/2000/svg">
<path d="M40.0433 4.46245L34.5755 9.95967L34.5545 4.45629L29.7913 4.46362L29.8447 18.451L34.6103 18.4437L34.5886 12.7698L40.3402 18.4348L46.3306 18.4256L39.0266 11.1558L45.0355 5.11712L45.0672 13.4233C45.0777 16.1823 46.7409 18.7221 50.9147 18.7156C52.8993 18.7126 54.7092 17.5848 55.5869 16.5655L57.7368 18.4105L58.7499 18.4089L58.6965 4.43131L53.9455 4.43862L53.9801 13.4924C53.4479 14.4283 52.7002 15.0212 51.5459 15.023C50.3722 15.0248 49.8313 14.3292 49.8229 12.1084L49.7936 4.44744L40.0433 4.46245ZM28.8902 11.466C28.9016 12.9133 28.4833 14.3305 27.6884 15.5381C26.8934 16.7458 25.7576 17.6897 24.4246 18.2504C23.0915 18.8111 21.6213 18.9634 20.1997 18.688C18.7782 18.4126 17.4694 17.7219 16.4389 16.7033C15.4083 15.6848 14.7024 14.3841 14.4104 12.9659C14.1185 11.5476 14.2536 10.0756 14.7986 8.73614C15.3437 7.39663 16.2742 6.24983 17.4725 5.44083C18.6708 4.63184 20.0829 4.19703 21.5302 4.19142C22.49 4.18545 23.442 4.36888 24.3317 4.73121C25.2214 5.09353 26.0312 5.62762 26.7149 6.3029C27.3986 6.97818 27.9426 7.78139 28.3159 8.66652C28.6892 9.55166 28.8843 10.5013 28.8902 11.4612L28.8902 11.466ZM21.5434 7.6493C20.282 7.65124 19.222 9.36721 19.23 11.4809C19.2381 13.5922 20.3112 15.3024 21.5726 15.3005C22.8584 15.2985 23.9233 13.5874 23.9153 11.4737C23.9072 9.35757 22.834 7.64731 21.5434 7.6493ZM16.2128 18.4866L10.8093 18.4949L6.49338 12.5501L5.04691 12.5523L5.06959 18.494L0.306449 18.5013L0.238281 0.644531L7.05668 0.634037C10.9919 0.627981 14.214 3.30168 14.2266 6.5891C14.2343 8.60051 13.0114 10.3947 11.1454 11.4958L16.2128 18.489L16.2128 18.4866ZM9.47077 6.59642C9.47119 6.20395 9.39423 5.81507 9.24427 5.45203C9.09432 5.089 8.87433 4.75892 8.59688 4.4807C8.31943 4.20248 7.98996 3.98157 7.62734 3.8306C7.26471 3.67964 6.87604 3.60159 6.48357 3.60092L5.01274 3.60318L5.03555 9.57655L6.50881 9.57428C7.29615 9.56986 8.04911 9.25434 8.60351 8.69651C9.1579 8.13868 9.46877 7.38378 9.46833 6.59642L9.47077 6.59642Z" fill="#F0F1F2"/>
</svg>
