<svg width="19" height="19" viewBox="0 0 19 19" fill="none" xmlns="http://www.w3.org/2000/svg">
<path fill-rule="evenodd" clip-rule="evenodd" d="M18.3769 17.2133L14.0397 12.8996C15.1057 11.5915 15.7448 9.9179 15.7379 8.09535C15.7219 3.91419 12.3161 0.525364 8.13481 0.5318C3.94971 0.538241 0.573504 3.9375 0.589465 8.11866C0.605428 12.3003 4.00754 15.6881 8.19264 15.6817C10.0156 15.6789 11.682 15.0338 12.9837 13.9614L17.321 18.2714C17.6155 18.5645 18.0886 18.5637 18.3809 18.2697C18.6733 17.9795 18.6714 17.5021 18.3769 17.2133ZM8.18689 14.1742C4.83801 14.1793 2.10609 11.4615 2.09332 8.11635C2.08055 4.77068 4.79167 2.04179 8.14055 2.03663C11.4856 2.03148 14.2213 4.75199 14.2341 8.09766C14.2469 11.4428 11.532 14.169 8.18689 14.1742Z" fill="#02073E"/>
</svg>
