<svg width="109" height="17" viewBox="0 0 109 17" fill="none" xmlns="http://www.w3.org/2000/svg">
<path d="M7.88912 0.82293L5.87374 4.98228L1.2825 5.64559C0.47048 5.77184 0.161798 6.77231 0.757814 7.36515L4.05135 10.5788L3.2874 15.1112C3.1655 15.9239 4.04288 16.5476 4.7602 16.1715L8.84571 14.0089L12.9164 16.1589C13.6366 16.5328 14.5092 15.9065 14.3811 15.0942L13.5826 10.5642L16.8515 7.34038C17.443 6.74572 17.1267 5.7462 16.3137 5.62246L11.7487 4.97323L9.67037 0.820188C9.32388 0.101972 8.26126 0.0723579 7.88912 0.82293ZM30.6891 0.787839L28.6737 4.94718L24.0825 5.6105C23.2705 5.73675 22.9618 6.73722 23.5578 7.33005L26.8513 10.5437L26.0874 15.0762C25.9655 15.8888 26.8429 16.5125 27.5602 16.1364L31.6457 13.9738L35.7164 16.1238C36.4366 16.4977 37.3092 15.8714 37.1811 15.0591L36.3826 10.5291L39.6515 7.30529C40.243 6.71063 39.9267 5.71111 39.1137 5.58737L34.5487 4.93814L32.4703 0.785097C32.1238 0.0668815 31.0612 0.037267 30.6891 0.787839ZM53.4891 0.752748L51.4737 4.91209L46.8824 5.57541C46.0704 5.70166 45.7617 6.70213 46.3578 7.29496L49.6513 10.5086L48.8873 15.0411C48.7654 15.8537 49.6428 16.4774 50.3601 16.1013L54.4457 13.9388L58.5164 16.0887C59.2366 16.4626 60.1092 15.8363 59.9811 15.024L59.1825 10.494L62.4515 7.27019C63.043 6.67553 62.7267 5.67602 61.9137 5.55227L57.3487 4.90305L55.2703 0.750006C54.9238 0.0317905 53.8612 0.00217602 53.4891 0.752748ZM76.289 0.717657L74.2737 4.877L69.6824 5.54032C68.8704 5.66657 68.5617 6.66704 69.1577 7.25987L72.4513 10.4735L71.6873 15.006C71.5654 15.8187 72.4428 16.4423 73.1601 16.0662L77.2456 13.9037L81.3164 16.0536C82.0365 16.4275 82.9092 15.8012 82.7811 14.9889L81.9825 10.4589L85.2515 7.2351C85.8429 6.64044 85.5266 5.64093 84.7137 5.51718L80.1487 4.86796L78.0703 0.714915C77.7238 -0.00330042 76.6612 -0.0329149 76.289 0.717657Z" fill="white"/>
<path d="M99.089 0.682566L97.0736 4.84191L92.4824 5.50523C91.6704 5.63148 91.3617 6.63195 91.9577 7.22478L95.2512 10.4385L94.4873 14.9709C94.3654 15.7836 95.2428 16.4072 95.9601 16.0311L100.046 13.8686L104.116 16.0186C104.837 16.3924 105.709 15.7661 105.581 14.9538L104.782 10.4238L108.051 7.20001C108.643 6.60535 108.327 5.60584 107.514 5.48209L102.949 4.83287L100.87 0.679824C100.524 -0.0383914 99.4611 -0.0680059 99.089 0.682566Z" fill="white" fill-opacity="0.2"/>
</svg>
